<svg width="120" height="150" viewBox="0 0 120 150" fill="none" xmlns="http://www.w3.org/2000/svg">
<g clip-path="url(#clip0_68_13)">
<rect width="120" height="35" rx="12" fill="#4C4B4B"/>
<path d="M37.7104 28.96C37.2037 28.96 36.6771 28.8467 36.1304 28.62C35.5971 28.4067 35.2171 28.06 34.9904 27.58C34.8971 27.4067 34.8371 27.22 34.8104 27.02C34.7971 26.8333 34.7904 26.6467 34.7904 26.46V26.24C34.7904 26.1333 34.8037 26.0333 34.8304 25.94C34.8571 25.86 34.9237 25.82 35.0304 25.82C35.0571 25.82 35.0704 25.8333 35.0704 25.86C35.0704 25.94 35.0637 26.02 35.0504 26.1C35.0371 26.18 35.0304 26.2667 35.0304 26.36C35.0304 26.9733 35.2237 27.44 35.6104 27.76C36.0104 28.08 36.5037 28.24 37.0904 28.24C37.9304 28.24 38.7037 28.0333 39.4104 27.62C40.1171 27.2067 40.7571 26.64 41.3304 25.92C41.8904 25.2267 42.3437 24.5467 42.6904 23.88C43.0504 23.2267 43.3637 22.56 43.6304 21.88C43.8971 21.2 44.1704 20.5 44.4504 19.78C44.1037 20.3 43.6237 20.78 43.0104 21.22C42.3971 21.6467 41.7304 21.9867 41.0104 22.24C40.3037 22.5067 39.6171 22.64 38.9504 22.64C38.2437 22.64 37.5771 22.5133 36.9504 22.26C36.3371 22.02 35.8437 21.6533 35.4704 21.16C35.0971 20.6667 34.9104 20.0467 34.9104 19.3C34.9104 18.4333 35.0771 17.5867 35.4104 16.76C35.7437 15.9333 36.1904 15.1667 36.7504 14.46C37.3104 13.74 37.9371 13.12 38.6304 12.6C39.2437 12.1333 39.9504 11.7533 40.7504 11.46C41.5637 11.1667 42.3704 11.02 43.1704 11.02C43.5037 11.02 43.8171 11.0467 44.1104 11.1C44.4037 11.14 44.7037 11.2333 45.0104 11.38C45.2771 11.5 45.4904 11.6533 45.6504 11.84C45.8104 12.0133 45.8904 12.2133 45.8904 12.44C45.8904 12.4667 45.8904 12.5 45.8904 12.54C45.8904 12.58 45.8837 12.6133 45.8704 12.64C45.8171 12.8533 45.6904 13.1 45.4904 13.38C45.3037 13.6467 45.1571 13.9267 45.0504 14.22C45.0371 14.2733 44.9637 14.32 44.8304 14.36C44.6971 14.3867 44.6437 14.3733 44.6704 14.32C44.7771 14.1467 44.8571 13.9333 44.9104 13.68C44.9771 13.4267 45.0104 13.1733 45.0104 12.92C45.0104 12.7333 44.9904 12.56 44.9504 12.4C44.9237 12.2267 44.8704 12.08 44.7904 11.96C44.6571 11.72 44.4504 11.5533 44.1704 11.46C43.8904 11.3667 43.5904 11.32 43.2704 11.32C42.9637 11.32 42.6571 11.3533 42.3504 11.42C42.0437 11.4867 41.7771 11.56 41.5504 11.64C40.7771 11.92 40.0371 12.36 39.3304 12.96C38.7037 13.5067 38.1437 14.14 37.6504 14.86C37.1704 15.58 36.7904 16.32 36.5104 17.08C36.2304 17.84 36.0904 18.5667 36.0904 19.26C36.0904 19.9667 36.2237 20.54 36.4904 20.98C36.7704 21.42 37.1371 21.7467 37.5904 21.96C38.0437 22.16 38.5304 22.26 39.0504 22.26C40.1304 22.26 41.0771 22.0133 41.8904 21.52C42.7171 21.0133 43.4171 20.3533 43.9904 19.54C44.5637 18.7267 45.0037 17.8533 45.3104 16.92H43.2504C43.0904 16.92 42.8704 16.9333 42.5904 16.96C42.3104 16.9733 42.0237 17.02 41.7304 17.1C41.4371 17.1667 41.1904 17.28 40.9904 17.44C40.7904 17.6 40.6904 17.82 40.6904 18.1C40.6904 18.1933 40.7037 18.2933 40.7304 18.4C40.7571 18.4933 40.7771 18.5667 40.7904 18.62L40.6104 18.74C40.5171 18.5667 40.4037 18.3867 40.2704 18.2C40.1504 18 40.0837 17.84 40.0704 17.72C40.0571 17.6133 40.0637 17.4733 40.0904 17.3C40.1171 17.1267 40.2037 16.9733 40.3504 16.84C40.5104 16.6933 40.7371 16.6 41.0304 16.56C41.3371 16.5067 41.6504 16.48 41.9704 16.48C42.2637 16.48 42.5437 16.4933 42.8104 16.52C43.0771 16.5333 43.2904 16.54 43.4504 16.54H47.2504L47.0304 16.78C46.8437 16.78 46.6371 16.8133 46.4104 16.88C46.1837 16.9333 45.9971 17.0533 45.8504 17.24C45.5571 17.6133 45.3304 18.0333 45.1704 18.5C45.0237 18.9667 44.8704 19.46 44.7104 19.98C44.4437 20.9267 44.1837 21.8533 43.9304 22.76C43.6771 23.68 43.3371 24.5467 42.9104 25.36C42.4971 26.1867 41.8904 26.9467 41.0904 27.64C40.6637 28 40.1304 28.3067 39.4904 28.56C38.8504 28.8267 38.2571 28.96 37.7104 28.96ZM47.4738 22.06C47.3405 22.06 47.2272 22.0333 47.1338 21.98C47.0405 21.9267 46.9938 21.8267 46.9938 21.68C46.9938 21.4933 47.0405 21.2733 47.1338 21.02C47.2405 20.7667 47.3538 20.5133 47.4738 20.26C47.5938 20.0067 47.6938 19.8 47.7738 19.64C47.9338 19.3333 48.0872 19.0267 48.2338 18.72C48.3805 18.4133 48.5072 18.1533 48.6138 17.94C48.7205 17.74 48.7738 17.6067 48.7738 17.54C48.7738 17.4333 48.6938 17.4333 48.5338 17.54C48.3872 17.6467 48.2472 17.7533 48.1138 17.86C47.8205 18.14 47.5138 18.4733 47.1938 18.86C46.8738 19.2333 46.6272 19.5333 46.4538 19.76C46.4138 19.8133 46.3805 19.84 46.3538 19.84C46.3272 19.84 46.3138 19.8067 46.3138 19.74C46.3138 19.6333 46.3472 19.5333 46.4138 19.44C46.6005 19.1733 46.8205 18.88 47.0738 18.56C47.3272 18.24 47.5872 17.9333 47.8538 17.64C48.1072 17.3733 48.3672 17.1133 48.6338 16.86C48.9005 16.6067 49.2405 16.48 49.6538 16.48C49.9338 16.48 50.0738 16.5867 50.0738 16.8C50.0738 16.9867 49.9938 17.2 49.8338 17.44C49.7405 17.5867 49.5938 17.8333 49.3938 18.18C49.1938 18.5267 48.9872 18.9067 48.7738 19.32C48.5738 19.72 48.4005 20.0933 48.2538 20.44C48.1072 20.7867 48.0338 21.04 48.0338 21.2C48.0338 21.3867 48.1272 21.48 48.3138 21.48C48.4605 21.48 48.6405 21.4067 48.8538 21.26C49.0672 21.1 49.2872 20.9133 49.5138 20.7C49.9272 20.3 50.3005 19.8667 50.6338 19.4C50.9805 18.92 51.2738 18.46 51.5138 18.02C51.7672 17.58 51.9672 17.22 52.1138 16.94C52.1405 16.8867 52.1672 16.8267 52.1938 16.76C52.2338 16.68 52.2938 16.6333 52.3738 16.62C52.4538 16.6067 52.6272 16.6 52.8938 16.6C53.1605 16.6 53.4072 16.5467 53.6338 16.44H53.6738C53.7138 16.44 53.7338 16.46 53.7338 16.5C53.7338 16.6067 53.6472 16.6867 53.4738 16.74C53.3138 16.7933 53.1272 16.9533 52.9138 17.22C52.7138 17.4867 52.5138 17.8133 52.3138 18.2C52.1138 18.5733 51.9338 18.96 51.7738 19.36C51.6138 19.76 51.4938 20.1267 51.4138 20.46C51.3338 20.7933 51.3138 21.04 51.3538 21.2C51.4072 21.3867 51.5005 21.48 51.6338 21.48C51.8072 21.48 52.0472 21.3733 52.3538 21.16C52.6738 20.9467 53.0005 20.6933 53.3338 20.4C53.6672 20.0933 53.9405 19.8133 54.1538 19.56C54.2472 19.4533 54.3338 19.3467 54.4138 19.24C54.4938 19.1333 54.5472 19.0667 54.5738 19.04C54.5872 19.0533 54.6005 19.08 54.6138 19.12C54.6272 19.1467 54.6338 19.1733 54.6338 19.2C54.6205 19.2933 54.5872 19.3867 54.5338 19.48C54.4805 19.56 54.4205 19.6333 54.3538 19.7C54.1005 20.0333 53.7938 20.3867 53.4338 20.76C53.0872 21.12 52.7072 21.4267 52.2938 21.68C51.8938 21.9333 51.4805 22.06 51.0538 22.06C50.9205 22.06 50.7672 22.0267 50.5938 21.96C50.4338 21.8933 50.3538 21.7467 50.3538 21.52C50.3538 21.3467 50.4005 21.1133 50.4938 20.82C50.5872 20.5133 50.6872 20.2133 50.7938 19.92C50.9138 19.6133 51.0138 19.3867 51.0938 19.24C50.9205 19.4933 50.7072 19.78 50.4538 20.1C50.2138 20.4067 49.9672 20.68 49.7138 20.92C49.3805 21.24 49.0205 21.5133 48.6338 21.74C48.2605 21.9533 47.8738 22.06 47.4738 22.06ZM55.3454 22.16C54.7987 22.16 54.4187 22.0533 54.2054 21.84C53.9921 21.6267 53.8854 21.3667 53.8854 21.06C53.8854 20.6733 53.9854 20.26 54.1854 19.82C54.3987 19.38 54.5987 19.0067 54.7854 18.7C54.9987 18.38 55.2854 18.0467 55.6454 17.7C56.0054 17.3533 56.3987 17.06 56.8254 16.82C57.2521 16.58 57.6654 16.46 58.0654 16.46C58.4121 16.46 58.6521 16.5467 58.7854 16.72C58.9187 16.88 58.9854 17.0733 58.9854 17.3C58.9854 17.7133 58.8587 18.0533 58.6054 18.32C58.3654 18.5867 58.0654 18.8067 57.7054 18.98C57.3454 19.14 56.9987 19.2733 56.6654 19.38C56.4654 19.4333 56.2321 19.4867 55.9654 19.54C55.6987 19.5933 55.4454 19.62 55.2054 19.62C55.1121 19.86 55.0387 20.0933 54.9854 20.32C54.9321 20.5467 54.9054 20.7533 54.9054 20.94C54.9054 21.1667 54.9587 21.3533 55.0654 21.5C55.1854 21.6467 55.3787 21.72 55.6454 21.72C55.7521 21.72 55.8787 21.7067 56.0254 21.68C56.1721 21.6533 56.3321 21.6133 56.5054 21.56C56.9054 21.4267 57.2987 21.2133 57.6854 20.92C58.0721 20.6267 58.4254 20.3133 58.7454 19.98C59.0787 19.6333 59.3321 19.3467 59.5054 19.12C59.5454 19.16 59.5654 19.2067 59.5654 19.26C59.5654 19.3267 59.5187 19.4333 59.4254 19.58C59.1587 19.9533 58.8121 20.34 58.3854 20.74C57.9587 21.14 57.4854 21.48 56.9654 21.76C56.4454 22.0267 55.9054 22.16 55.3454 22.16ZM55.3654 19.22C55.5387 19.2333 55.7321 19.2333 55.9454 19.22C56.1721 19.1933 56.3921 19.1467 56.6054 19.08C57.1521 18.92 57.5454 18.6667 57.7854 18.32C58.0387 17.96 58.1654 17.64 58.1654 17.36C58.1654 17.2 58.1321 17.0667 58.0654 16.96C57.9987 16.8533 57.8921 16.8 57.7454 16.8C57.3587 16.8 57.0121 16.9467 56.7054 17.24C56.3987 17.52 56.1321 17.8467 55.9054 18.22C55.6787 18.5933 55.4987 18.9267 55.3654 19.22ZM60.3859 22.32C60.1459 22.32 59.8925 22.2867 59.6259 22.22C59.3592 22.1533 59.1192 22.0467 58.9059 21.9C58.7059 21.74 58.5725 21.5267 58.5059 21.26C58.4925 21.22 58.4859 21.16 58.4859 21.08C58.4859 20.8933 58.5259 20.6867 58.6059 20.46C58.6992 20.2333 58.8125 20.0733 58.9459 19.98C58.9992 19.9533 59.0392 19.9533 59.0659 19.98C59.1059 20.0067 59.1125 20.0333 59.0859 20.06C59.0725 20.1 59.0525 20.1533 59.0259 20.22C58.9992 20.2733 58.9792 20.3333 58.9659 20.4C58.9259 20.7467 58.9992 21.0533 59.1859 21.32C59.2659 21.4267 59.3592 21.5267 59.4659 21.62C59.5859 21.7133 59.6992 21.7933 59.8059 21.86C59.8992 21.9133 60.0125 21.9533 60.1459 21.98C60.2792 21.9933 60.4125 22 60.5459 22C60.7592 22 60.9659 21.9733 61.1659 21.92C61.3659 21.8667 61.5125 21.78 61.6059 21.66C61.7792 21.4467 61.8659 21.2067 61.8659 20.94C61.8659 20.74 61.8125 20.5267 61.7059 20.3C61.5992 20.0733 61.4325 19.8333 61.2059 19.58C61.0592 19.42 60.9192 19.2467 60.7859 19.06C60.6525 18.8733 60.5659 18.6733 60.5259 18.46C60.5125 18.42 60.4992 18.38 60.4859 18.34C60.4859 18.3 60.4859 18.26 60.4859 18.22C60.3125 18.4733 60.1325 18.7133 59.9459 18.94C59.7725 19.1533 59.6192 19.34 59.4859 19.5C59.4325 19.58 59.3859 19.62 59.3459 19.62C59.3192 19.62 59.3059 19.5933 59.3059 19.54C59.3059 19.42 59.3592 19.2933 59.4659 19.16C59.5725 19.04 59.6925 18.8933 59.8259 18.72C59.9592 18.5333 60.0659 18.3867 60.1459 18.28C60.3725 17.9467 60.5392 17.6867 60.6459 17.5C60.7659 17.3 60.8925 17.12 61.0259 16.96C61.1725 16.7867 61.3525 16.6467 61.5659 16.54C61.7925 16.4333 62.0259 16.38 62.2659 16.38C62.5459 16.38 62.7992 16.4267 63.0259 16.52C63.2659 16.6 63.3925 16.8133 63.4059 17.16C63.4059 17.32 63.3725 17.4867 63.3059 17.66C63.2525 17.82 63.1925 17.9733 63.1259 18.12C63.0859 18.2 63.0259 18.26 62.9459 18.3C62.8792 18.3267 62.8459 18.3133 62.8459 18.26C62.8459 18.2067 62.8525 18.1467 62.8659 18.08C62.8792 18.0133 62.8859 17.9533 62.8859 17.9C62.8859 17.6733 62.8459 17.4733 62.7659 17.3C62.6992 17.1133 62.5992 16.98 62.4659 16.9C62.3325 16.8067 62.1925 16.76 62.0459 16.76C61.8325 16.76 61.6259 16.8467 61.4259 17.02C61.2259 17.18 61.1259 17.3933 61.1259 17.66C61.1259 17.6867 61.1259 17.72 61.1259 17.76C61.1259 17.8 61.1325 17.8333 61.1459 17.86C61.1992 18.0733 61.3592 18.3133 61.6259 18.58C61.8925 18.8467 62.0992 19.08 62.2459 19.28C62.4992 19.6267 62.6259 19.98 62.6259 20.34C62.6259 20.7 62.5192 21.0333 62.3059 21.34C62.1059 21.6333 61.8325 21.8667 61.4859 22.04C61.1525 22.2267 60.7859 22.32 60.3859 22.32ZM64.6343 22.06C64.501 22.06 64.3876 22.0333 64.2943 21.98C64.201 21.9267 64.1543 21.8267 64.1543 21.68C64.1543 21.4933 64.201 21.2733 64.2943 21.02C64.401 20.7667 64.5143 20.5133 64.6343 20.26C64.7543 20.0067 64.8543 19.8 64.9343 19.64C65.001 19.52 65.0876 19.3333 65.1943 19.08C65.3143 18.8133 65.4343 18.54 65.5543 18.26C65.6876 17.9667 65.7943 17.72 65.8743 17.52C65.9676 17.32 66.0143 17.22 66.0143 17.22C65.8943 17.3533 65.7343 17.54 65.5343 17.78C65.3476 18.02 65.141 18.2733 64.9143 18.54C64.701 18.7933 64.501 19.0333 64.3143 19.26C64.141 19.4867 64.0143 19.6533 63.9343 19.76C63.8943 19.8133 63.861 19.84 63.8343 19.84C63.8076 19.84 63.7943 19.8067 63.7943 19.74C63.7943 19.6333 63.8276 19.5333 63.8943 19.44C64.0543 19.24 64.2476 19 64.4743 18.72C64.701 18.4267 64.9276 18.1333 65.1543 17.84C65.3943 17.5467 65.601 17.2867 65.7743 17.06C65.6676 17.06 65.5276 17.0667 65.3543 17.08C65.1943 17.0933 65.0476 17.1133 64.9143 17.14C64.781 17.1533 64.7076 17.16 64.6943 17.16C64.6276 17.16 64.6343 17.1067 64.7143 17C64.7943 16.8933 64.901 16.7867 65.0343 16.68C65.1676 16.5733 65.2676 16.52 65.3343 16.52C65.3476 16.52 65.4543 16.5267 65.6543 16.54C65.8543 16.54 66.001 16.54 66.0943 16.54C66.361 16.18 66.621 15.7667 66.8743 15.3C67.141 14.8333 67.401 14.32 67.6543 13.76C67.761 13.7467 67.941 13.6733 68.1943 13.54C68.461 13.3933 68.6676 13.2467 68.8143 13.1C68.881 13.0333 68.9343 13 68.9743 13C69.0543 13 69.0543 13.0533 68.9743 13.16C68.881 13.2667 68.721 13.4933 68.4943 13.84C68.2676 14.1733 68.0143 14.58 67.7343 15.06C67.4543 15.5267 67.1876 16.02 66.9343 16.54H68.5543C68.701 16.54 68.7743 16.56 68.7743 16.6C68.7743 16.6533 68.6743 16.7067 68.4743 16.76C68.2476 16.8267 68.0076 16.8667 67.7543 16.88C67.5143 16.8933 67.2876 16.92 67.0743 16.96C66.8743 17 66.7276 17.0867 66.6343 17.22C66.5543 17.3133 66.441 17.5133 66.2943 17.82C66.1476 18.1267 65.9876 18.48 65.8143 18.88C65.6543 19.2667 65.5143 19.66 65.3943 20.06C65.2743 20.4467 65.201 20.7733 65.1743 21.04V21.12C65.1743 21.2267 65.2076 21.3133 65.2743 21.38C65.341 21.4467 65.4076 21.48 65.4743 21.48C65.6476 21.48 65.8676 21.3733 66.1343 21.16C66.4143 20.9467 66.701 20.6933 66.9943 20.4C67.2876 20.0933 67.541 19.8133 67.7543 19.56C67.8476 19.4533 67.9276 19.3533 67.9943 19.26C68.0743 19.1667 68.121 19.1067 68.1343 19.08C68.161 19.1333 68.1743 19.1733 68.1743 19.2C68.1743 19.28 68.1476 19.3667 68.0943 19.46C68.0543 19.5533 68.0076 19.6333 67.9543 19.7C67.701 20.0333 67.3943 20.3867 67.0343 20.76C66.6743 21.12 66.2876 21.4267 65.8743 21.68C65.4743 21.9333 65.061 22.06 64.6343 22.06ZM72.238 22.5C71.8247 22.5 71.4847 22.38 71.218 22.14C70.9647 21.9 70.8647 21.54 70.918 21.06C70.9314 20.8867 70.9714 20.7067 71.038 20.52C71.118 20.32 71.2047 20.1267 71.298 19.94C71.378 19.7533 71.458 19.66 71.538 19.66C71.6047 19.66 71.6114 19.7133 71.558 19.82C71.3847 20.18 71.298 20.5 71.298 20.78C71.298 21.0733 71.398 21.2933 71.598 21.44C71.8114 21.5867 72.0847 21.66 72.418 21.66C73.0714 21.66 73.7914 21.4533 74.578 21.04C75.3647 20.6133 76.178 20.0733 77.018 19.42C77.858 18.7533 78.6647 18.06 79.438 17.34C78.918 17.3133 78.4314 17.2867 77.978 17.26C77.5247 17.2333 77.1247 17.22 76.778 17.22C76.4847 17.22 76.1314 17.2467 75.718 17.3C75.3047 17.3533 74.9847 17.4933 74.758 17.72C74.6647 17.8133 74.578 17.9533 74.498 18.14C74.4314 18.3133 74.398 18.4933 74.398 18.68C74.398 18.7333 74.398 18.7867 74.398 18.84C74.4114 18.88 74.4247 18.9267 74.438 18.98C74.3847 18.9533 74.2847 18.9333 74.138 18.92C74.0047 18.8933 73.918 18.8067 73.878 18.66C73.8647 18.62 73.858 18.5533 73.858 18.46C73.858 18.2467 73.938 18.0733 74.098 17.94C74.258 17.7933 74.4514 17.6667 74.678 17.56C74.9047 17.4533 75.1114 17.36 75.298 17.28C75.738 17.0933 76.1914 16.94 76.658 16.82C77.1247 16.7 77.598 16.64 78.078 16.64C78.6247 16.64 79.3047 16.66 80.118 16.7C80.7447 16.0867 81.3247 15.5067 81.858 14.96C82.3914 14.4133 82.8247 13.96 83.158 13.6C83.6247 13.1067 84.118 12.6867 84.638 12.34C85.1714 11.98 85.7114 11.7267 86.258 11.58H85.158C84.6914 11.58 84.1847 11.6 83.638 11.64C83.0914 11.68 82.578 11.7667 82.098 11.9C81.618 12.0333 81.218 12.2333 80.898 12.5C80.698 12.6733 80.5447 12.8733 80.438 13.1C80.3447 13.3133 80.298 13.5133 80.298 13.7C80.298 13.9533 80.3714 14.1267 80.518 14.22C80.5314 14.22 80.538 14.2267 80.538 14.24C80.538 14.28 80.4914 14.3267 80.398 14.38C80.3047 14.42 80.238 14.4267 80.198 14.4C80.0647 14.3067 79.9447 14.12 79.838 13.84C79.7447 13.5467 79.7114 13.3133 79.738 13.14C79.8047 12.7267 79.9847 12.3933 80.278 12.14C80.5847 11.8733 80.958 11.6667 81.398 11.52C81.8514 11.3733 82.3247 11.2733 82.818 11.22C83.3247 11.1667 83.8047 11.1333 84.258 11.12C84.7247 11.1067 85.118 11.1 85.438 11.1H87.618C87.6447 11.1 87.6514 11.1067 87.638 11.12C87.9714 10.9733 88.318 10.8267 88.678 10.68C89.0514 10.5333 89.3714 10.46 89.638 10.46C89.7047 10.46 89.7714 10.48 89.838 10.52C89.918 10.56 89.958 10.6 89.958 10.64C89.958 10.7067 89.8247 10.74 89.558 10.74C89.4247 10.74 89.2847 10.7667 89.138 10.82C89.0047 10.86 88.8247 11 88.598 11.24C88.4114 11.4267 88.178 11.7267 87.898 12.14C87.618 12.5533 87.3114 13.04 86.978 13.6C86.6447 14.1467 86.3114 14.7333 85.978 15.36C85.6447 15.9733 85.3247 16.58 85.018 17.18C84.7114 17.78 84.4447 18.3333 84.218 18.84C84.1914 18.92 84.118 19.1067 83.998 19.4C83.878 19.68 83.7647 19.9933 83.658 20.34C83.5514 20.6733 83.498 20.9733 83.498 21.24C83.498 21.6 83.6247 21.78 83.878 21.78C83.998 21.78 84.118 21.7533 84.238 21.7C84.4114 21.6333 84.5914 21.5333 84.778 21.4C84.9647 21.2667 85.1447 21.1133 85.318 20.94C85.6647 20.6067 85.958 20.2867 86.198 19.98C86.438 19.66 86.5847 19.4667 86.638 19.4C86.678 19.3333 86.7247 19.3 86.778 19.3C86.8314 19.3 86.858 19.3333 86.858 19.4C86.858 19.44 86.838 19.4933 86.798 19.56C86.7047 19.6933 86.5314 19.9267 86.278 20.26C86.0247 20.58 85.7247 20.9067 85.378 21.24C85.0447 21.5733 84.6847 21.8267 84.298 22C84.178 22.0533 84.0514 22.0933 83.918 22.12C83.7847 22.16 83.6514 22.18 83.518 22.18C83.2514 22.18 83.0047 22.0867 82.778 21.9C82.5647 21.7133 82.458 21.4067 82.458 20.98C82.458 20.5933 82.5314 20.18 82.678 19.74C82.838 19.2867 82.9847 18.92 83.118 18.64C83.3847 18.0667 83.698 17.4267 84.058 16.72C84.4314 16.0133 84.8114 15.3067 85.198 14.6C85.598 13.8933 85.9647 13.2533 86.298 12.68C86.6314 12.1067 86.9047 11.68 87.118 11.4C86.9047 11.4 86.618 11.4867 86.258 11.66C85.898 11.82 85.5114 12.04 85.098 12.32C84.698 12.5867 84.3247 12.9 83.978 13.26C83.5647 13.6867 83.0847 14.2067 82.538 14.82C82.0047 15.4333 81.4247 16.0733 80.798 16.74C81.1047 16.7533 81.4114 16.7667 81.718 16.78C82.0247 16.78 82.3314 16.78 82.638 16.78C82.8514 16.78 83.0847 16.76 83.338 16.72C83.6047 16.6667 83.8514 16.5867 84.078 16.48C84.078 16.48 84.038 16.5533 83.958 16.7C83.8914 16.8333 83.7714 16.9733 83.598 17.12C83.438 17.2533 83.218 17.3333 82.938 17.36C82.6847 17.3733 82.4314 17.3867 82.178 17.4C81.9247 17.4 81.6714 17.4 81.418 17.4C81.2047 17.4 80.9914 17.4 80.778 17.4C80.578 17.4 80.378 17.3933 80.178 17.38C79.5647 18.02 78.9247 18.6467 78.258 19.26C77.5914 19.86 76.918 20.4067 76.238 20.9C75.558 21.3933 74.878 21.78 74.198 22.06C73.5314 22.3533 72.878 22.5 72.238 22.5Z" fill="white"/>
</g>
<g clip-path="url(#clip1_68_13)">
<rect y="54" width="120" height="35" rx="12" fill="#4C4B4B"/>
<path d="M39.7709 82.96C39.2643 82.96 38.7376 82.8467 38.1909 82.62C37.6576 82.4067 37.2776 82.06 37.0509 81.58C36.9576 81.4067 36.8976 81.22 36.8709 81.02C36.8576 80.8333 36.8509 80.6467 36.8509 80.46V80.24C36.8509 80.1333 36.8643 80.0333 36.8909 79.94C36.9176 79.86 36.9843 79.82 37.0909 79.82C37.1176 79.82 37.1309 79.8333 37.1309 79.86C37.1309 79.94 37.1243 80.02 37.1109 80.1C37.0976 80.18 37.0909 80.2667 37.0909 80.36C37.0909 80.9733 37.2843 81.44 37.6709 81.76C38.0709 82.08 38.5643 82.24 39.1509 82.24C39.9909 82.24 40.7643 82.0333 41.4709 81.62C42.1776 81.2067 42.8176 80.64 43.3909 79.92C43.9509 79.2267 44.4043 78.5467 44.7509 77.88C45.1109 77.2267 45.4243 76.56 45.6909 75.88C45.9576 75.2 46.2309 74.5 46.5109 73.78C46.1643 74.3 45.6843 74.78 45.0709 75.22C44.4576 75.6467 43.7909 75.9867 43.0709 76.24C42.3643 76.5067 41.6776 76.64 41.0109 76.64C40.3043 76.64 39.6376 76.5133 39.0109 76.26C38.3976 76.02 37.9043 75.6533 37.5309 75.16C37.1576 74.6667 36.9709 74.0467 36.9709 73.3C36.9709 72.4333 37.1376 71.5867 37.4709 70.76C37.8043 69.9333 38.2509 69.1667 38.8109 68.46C39.3709 67.74 39.9976 67.12 40.6909 66.6C41.3043 66.1333 42.0109 65.7533 42.8109 65.46C43.6243 65.1667 44.4309 65.02 45.2309 65.02C45.5643 65.02 45.8776 65.0467 46.1709 65.1C46.4643 65.14 46.7643 65.2333 47.0709 65.38C47.3376 65.5 47.5509 65.6533 47.7109 65.84C47.8709 66.0133 47.9509 66.2133 47.9509 66.44C47.9509 66.4667 47.9509 66.5 47.9509 66.54C47.9509 66.58 47.9443 66.6133 47.9309 66.64C47.8776 66.8533 47.7509 67.1 47.5509 67.38C47.3643 67.6467 47.2176 67.9267 47.1109 68.22C47.0976 68.2733 47.0243 68.32 46.8909 68.36C46.7576 68.3867 46.7043 68.3733 46.7309 68.32C46.8376 68.1467 46.9176 67.9333 46.9709 67.68C47.0376 67.4267 47.0709 67.1733 47.0709 66.92C47.0709 66.7333 47.0509 66.56 47.0109 66.4C46.9843 66.2267 46.9309 66.08 46.8509 65.96C46.7176 65.72 46.5109 65.5533 46.2309 65.46C45.9509 65.3667 45.6509 65.32 45.3309 65.32C45.0243 65.32 44.7176 65.3533 44.4109 65.42C44.1043 65.4867 43.8376 65.56 43.6109 65.64C42.8376 65.92 42.0976 66.36 41.3909 66.96C40.7643 67.5067 40.2043 68.14 39.7109 68.86C39.2309 69.58 38.8509 70.32 38.5709 71.08C38.2909 71.84 38.1509 72.5667 38.1509 73.26C38.1509 73.9667 38.2843 74.54 38.5509 74.98C38.8309 75.42 39.1976 75.7467 39.6509 75.96C40.1043 76.16 40.5909 76.26 41.1109 76.26C42.1909 76.26 43.1376 76.0133 43.9509 75.52C44.7776 75.0133 45.4776 74.3533 46.0509 73.54C46.6243 72.7267 47.0643 71.8533 47.3709 70.92H45.3109C45.1509 70.92 44.9309 70.9333 44.6509 70.96C44.3709 70.9733 44.0843 71.02 43.7909 71.1C43.4976 71.1667 43.2509 71.28 43.0509 71.44C42.8509 71.6 42.7509 71.82 42.7509 72.1C42.7509 72.1933 42.7643 72.2933 42.7909 72.4C42.8176 72.4933 42.8376 72.5667 42.8509 72.62L42.6709 72.74C42.5776 72.5667 42.4643 72.3867 42.3309 72.2C42.2109 72 42.1443 71.84 42.1309 71.72C42.1176 71.6133 42.1243 71.4733 42.1509 71.3C42.1776 71.1267 42.2643 70.9733 42.4109 70.84C42.5709 70.6933 42.7976 70.6 43.0909 70.56C43.3976 70.5067 43.7109 70.48 44.0309 70.48C44.3243 70.48 44.6043 70.4933 44.8709 70.52C45.1376 70.5333 45.3509 70.54 45.5109 70.54H49.3109L49.0909 70.78C48.9043 70.78 48.6976 70.8133 48.4709 70.88C48.2443 70.9333 48.0576 71.0533 47.9109 71.24C47.6176 71.6133 47.3909 72.0333 47.2309 72.5C47.0843 72.9667 46.9309 73.46 46.7709 73.98C46.5043 74.9267 46.2443 75.8533 45.9909 76.76C45.7376 77.68 45.3976 78.5467 44.9709 79.36C44.5576 80.1867 43.9509 80.9467 43.1509 81.64C42.7243 82 42.1909 82.3067 41.5509 82.56C40.9109 82.8267 40.3176 82.96 39.7709 82.96ZM49.5344 76.06C49.401 76.06 49.2877 76.0333 49.1944 75.98C49.101 75.9267 49.0544 75.8267 49.0544 75.68C49.0544 75.4933 49.101 75.2733 49.1944 75.02C49.301 74.7667 49.4144 74.5133 49.5344 74.26C49.6544 74.0067 49.7544 73.8 49.8344 73.64C49.9944 73.3333 50.1477 73.0267 50.2944 72.72C50.441 72.4133 50.5677 72.1533 50.6744 71.94C50.781 71.74 50.8344 71.6067 50.8344 71.54C50.8344 71.4333 50.7544 71.4333 50.5944 71.54C50.4477 71.6467 50.3077 71.7533 50.1744 71.86C49.881 72.14 49.5744 72.4733 49.2544 72.86C48.9344 73.2333 48.6877 73.5333 48.5144 73.76C48.4744 73.8133 48.441 73.84 48.4144 73.84C48.3877 73.84 48.3744 73.8067 48.3744 73.74C48.3744 73.6333 48.4077 73.5333 48.4744 73.44C48.661 73.1733 48.881 72.88 49.1344 72.56C49.3877 72.24 49.6477 71.9333 49.9144 71.64C50.1677 71.3733 50.4277 71.1133 50.6944 70.86C50.961 70.6067 51.301 70.48 51.7144 70.48C51.9944 70.48 52.1344 70.5867 52.1344 70.8C52.1344 70.9867 52.0544 71.2 51.8944 71.44C51.801 71.5867 51.6544 71.8333 51.4544 72.18C51.2544 72.5267 51.0477 72.9067 50.8344 73.32C50.6344 73.72 50.461 74.0933 50.3144 74.44C50.1677 74.7867 50.0944 75.04 50.0944 75.2C50.0944 75.3867 50.1877 75.48 50.3744 75.48C50.521 75.48 50.701 75.4067 50.9144 75.26C51.1277 75.1 51.3477 74.9133 51.5744 74.7C51.9877 74.3 52.361 73.8667 52.6944 73.4C53.041 72.92 53.3344 72.46 53.5744 72.02C53.8277 71.58 54.0277 71.22 54.1744 70.94C54.201 70.8867 54.2277 70.8267 54.2544 70.76C54.2944 70.68 54.3544 70.6333 54.4344 70.62C54.5144 70.6067 54.6877 70.6 54.9544 70.6C55.221 70.6 55.4677 70.5467 55.6944 70.44H55.7344C55.7744 70.44 55.7944 70.46 55.7944 70.5C55.7944 70.6067 55.7077 70.6867 55.5344 70.74C55.3744 70.7933 55.1877 70.9533 54.9744 71.22C54.7744 71.4867 54.5744 71.8133 54.3744 72.2C54.1744 72.5733 53.9944 72.96 53.8344 73.36C53.6744 73.76 53.5544 74.1267 53.4744 74.46C53.3944 74.7933 53.3744 75.04 53.4144 75.2C53.4677 75.3867 53.561 75.48 53.6944 75.48C53.8677 75.48 54.1077 75.3733 54.4144 75.16C54.7344 74.9467 55.061 74.6933 55.3944 74.4C55.7277 74.0933 56.001 73.8133 56.2144 73.56C56.3077 73.4533 56.3944 73.3467 56.4744 73.24C56.5544 73.1333 56.6077 73.0667 56.6344 73.04C56.6477 73.0533 56.661 73.08 56.6744 73.12C56.6877 73.1467 56.6944 73.1733 56.6944 73.2C56.681 73.2933 56.6477 73.3867 56.5944 73.48C56.541 73.56 56.481 73.6333 56.4144 73.7C56.161 74.0333 55.8544 74.3867 55.4944 74.76C55.1477 75.12 54.7677 75.4267 54.3544 75.68C53.9544 75.9333 53.541 76.06 53.1144 76.06C52.981 76.06 52.8277 76.0267 52.6544 75.96C52.4944 75.8933 52.4144 75.7467 52.4144 75.52C52.4144 75.3467 52.461 75.1133 52.5544 74.82C52.6477 74.5133 52.7477 74.2133 52.8544 73.92C52.9744 73.6133 53.0744 73.3867 53.1544 73.24C52.981 73.4933 52.7677 73.78 52.5144 74.1C52.2744 74.4067 52.0277 74.68 51.7744 74.92C51.441 75.24 51.081 75.5133 50.6944 75.74C50.321 75.9533 49.9344 76.06 49.5344 76.06ZM57.4059 76.16C56.8593 76.16 56.4793 76.0533 56.2659 75.84C56.0526 75.6267 55.9459 75.3667 55.9459 75.06C55.9459 74.6733 56.0459 74.26 56.2459 73.82C56.4593 73.38 56.6593 73.0067 56.8459 72.7C57.0593 72.38 57.3459 72.0467 57.7059 71.7C58.0659 71.3533 58.4593 71.06 58.8859 70.82C59.3126 70.58 59.7259 70.46 60.1259 70.46C60.4726 70.46 60.7126 70.5467 60.8459 70.72C60.9793 70.88 61.0459 71.0733 61.0459 71.3C61.0459 71.7133 60.9193 72.0533 60.6659 72.32C60.4259 72.5867 60.1259 72.8067 59.7659 72.98C59.4059 73.14 59.0593 73.2733 58.7259 73.38C58.5259 73.4333 58.2926 73.4867 58.0259 73.54C57.7593 73.5933 57.5059 73.62 57.2659 73.62C57.1726 73.86 57.0993 74.0933 57.0459 74.32C56.9926 74.5467 56.9659 74.7533 56.9659 74.94C56.9659 75.1667 57.0193 75.3533 57.1259 75.5C57.2459 75.6467 57.4393 75.72 57.7059 75.72C57.8126 75.72 57.9393 75.7067 58.0859 75.68C58.2326 75.6533 58.3926 75.6133 58.5659 75.56C58.9659 75.4267 59.3593 75.2133 59.7459 74.92C60.1326 74.6267 60.4859 74.3133 60.8059 73.98C61.1393 73.6333 61.3926 73.3467 61.5659 73.12C61.6059 73.16 61.6259 73.2067 61.6259 73.26C61.6259 73.3267 61.5793 73.4333 61.4859 73.58C61.2193 73.9533 60.8726 74.34 60.4459 74.74C60.0193 75.14 59.5459 75.48 59.0259 75.76C58.5059 76.0267 57.9659 76.16 57.4059 76.16ZM57.4259 73.22C57.5993 73.2333 57.7926 73.2333 58.0059 73.22C58.2326 73.1933 58.4526 73.1467 58.6659 73.08C59.2126 72.92 59.6059 72.6667 59.8459 72.32C60.0993 71.96 60.2259 71.64 60.2259 71.36C60.2259 71.2 60.1926 71.0667 60.1259 70.96C60.0593 70.8533 59.9526 70.8 59.8059 70.8C59.4193 70.8 59.0726 70.9467 58.7659 71.24C58.4593 71.52 58.1926 71.8467 57.9659 72.22C57.7393 72.5933 57.5593 72.9267 57.4259 73.22ZM62.4464 76.32C62.2064 76.32 61.9531 76.2867 61.6864 76.22C61.4197 76.1533 61.1797 76.0467 60.9664 75.9C60.7664 75.74 60.6331 75.5267 60.5664 75.26C60.5531 75.22 60.5464 75.16 60.5464 75.08C60.5464 74.8933 60.5864 74.6867 60.6664 74.46C60.7597 74.2333 60.8731 74.0733 61.0064 73.98C61.0597 73.9533 61.0997 73.9533 61.1264 73.98C61.1664 74.0067 61.1731 74.0333 61.1464 74.06C61.1331 74.1 61.1131 74.1533 61.0864 74.22C61.0597 74.2733 61.0397 74.3333 61.0264 74.4C60.9864 74.7467 61.0597 75.0533 61.2464 75.32C61.3264 75.4267 61.4197 75.5267 61.5264 75.62C61.6464 75.7133 61.7597 75.7933 61.8664 75.86C61.9597 75.9133 62.0731 75.9533 62.2064 75.98C62.3397 75.9933 62.4731 76 62.6064 76C62.8197 76 63.0264 75.9733 63.2264 75.92C63.4264 75.8667 63.5731 75.78 63.6664 75.66C63.8397 75.4467 63.9264 75.2067 63.9264 74.94C63.9264 74.74 63.8731 74.5267 63.7664 74.3C63.6597 74.0733 63.4931 73.8333 63.2664 73.58C63.1197 73.42 62.9797 73.2467 62.8464 73.06C62.7131 72.8733 62.6264 72.6733 62.5864 72.46C62.5731 72.42 62.5597 72.38 62.5464 72.34C62.5464 72.3 62.5464 72.26 62.5464 72.22C62.3731 72.4733 62.1931 72.7133 62.0064 72.94C61.8331 73.1533 61.6797 73.34 61.5464 73.5C61.4931 73.58 61.4464 73.62 61.4064 73.62C61.3797 73.62 61.3664 73.5933 61.3664 73.54C61.3664 73.42 61.4197 73.2933 61.5264 73.16C61.6331 73.04 61.7531 72.8933 61.8864 72.72C62.0197 72.5333 62.1264 72.3867 62.2064 72.28C62.4331 71.9467 62.5997 71.6867 62.7064 71.5C62.8264 71.3 62.9531 71.12 63.0864 70.96C63.2331 70.7867 63.4131 70.6467 63.6264 70.54C63.8531 70.4333 64.0864 70.38 64.3264 70.38C64.6064 70.38 64.8597 70.4267 65.0864 70.52C65.3264 70.6 65.4531 70.8133 65.4664 71.16C65.4664 71.32 65.4331 71.4867 65.3664 71.66C65.3131 71.82 65.2531 71.9733 65.1864 72.12C65.1464 72.2 65.0864 72.26 65.0064 72.3C64.9397 72.3267 64.9064 72.3133 64.9064 72.26C64.9064 72.2067 64.9131 72.1467 64.9264 72.08C64.9397 72.0133 64.9464 71.9533 64.9464 71.9C64.9464 71.6733 64.9064 71.4733 64.8264 71.3C64.7597 71.1133 64.6597 70.98 64.5264 70.9C64.3931 70.8067 64.2531 70.76 64.1064 70.76C63.8931 70.76 63.6864 70.8467 63.4864 71.02C63.2864 71.18 63.1864 71.3933 63.1864 71.66C63.1864 71.6867 63.1864 71.72 63.1864 71.76C63.1864 71.8 63.1931 71.8333 63.2064 71.86C63.2597 72.0733 63.4197 72.3133 63.6864 72.58C63.9531 72.8467 64.1597 73.08 64.3064 73.28C64.5597 73.6267 64.6864 73.98 64.6864 74.34C64.6864 74.7 64.5797 75.0333 64.3664 75.34C64.1664 75.6333 63.8931 75.8667 63.5464 76.04C63.2131 76.2267 62.8464 76.32 62.4464 76.32ZM66.6948 76.06C66.5615 76.06 66.4482 76.0333 66.3548 75.98C66.2615 75.9267 66.2148 75.8267 66.2148 75.68C66.2148 75.4933 66.2615 75.2733 66.3548 75.02C66.4615 74.7667 66.5748 74.5133 66.6948 74.26C66.8148 74.0067 66.9148 73.8 66.9948 73.64C67.0615 73.52 67.1482 73.3333 67.2548 73.08C67.3748 72.8133 67.4948 72.54 67.6148 72.26C67.7482 71.9667 67.8548 71.72 67.9348 71.52C68.0282 71.32 68.0748 71.22 68.0748 71.22C67.9548 71.3533 67.7948 71.54 67.5948 71.78C67.4082 72.02 67.2015 72.2733 66.9748 72.54C66.7615 72.7933 66.5615 73.0333 66.3748 73.26C66.2015 73.4867 66.0748 73.6533 65.9948 73.76C65.9548 73.8133 65.9215 73.84 65.8948 73.84C65.8682 73.84 65.8548 73.8067 65.8548 73.74C65.8548 73.6333 65.8882 73.5333 65.9548 73.44C66.1148 73.24 66.3082 73 66.5348 72.72C66.7615 72.4267 66.9882 72.1333 67.2148 71.84C67.4548 71.5467 67.6615 71.2867 67.8348 71.06C67.7282 71.06 67.5882 71.0667 67.4148 71.08C67.2548 71.0933 67.1082 71.1133 66.9748 71.14C66.8415 71.1533 66.7682 71.16 66.7548 71.16C66.6882 71.16 66.6948 71.1067 66.7748 71C66.8548 70.8933 66.9615 70.7867 67.0948 70.68C67.2282 70.5733 67.3282 70.52 67.3948 70.52C67.4082 70.52 67.5148 70.5267 67.7148 70.54C67.9148 70.54 68.0615 70.54 68.1548 70.54C68.4215 70.18 68.6815 69.7667 68.9348 69.3C69.2015 68.8333 69.4615 68.32 69.7148 67.76C69.8215 67.7467 70.0015 67.6733 70.2548 67.54C70.5215 67.3933 70.7282 67.2467 70.8748 67.1C70.9415 67.0333 70.9948 67 71.0348 67C71.1148 67 71.1148 67.0533 71.0348 67.16C70.9415 67.2667 70.7815 67.4933 70.5548 67.84C70.3282 68.1733 70.0748 68.58 69.7948 69.06C69.5148 69.5267 69.2482 70.02 68.9948 70.54H70.6148C70.7615 70.54 70.8348 70.56 70.8348 70.6C70.8348 70.6533 70.7348 70.7067 70.5348 70.76C70.3082 70.8267 70.0682 70.8667 69.8148 70.88C69.5748 70.8933 69.3482 70.92 69.1348 70.96C68.9348 71 68.7882 71.0867 68.6948 71.22C68.6148 71.3133 68.5015 71.5133 68.3548 71.82C68.2082 72.1267 68.0482 72.48 67.8748 72.88C67.7148 73.2667 67.5748 73.66 67.4548 74.06C67.3348 74.4467 67.2615 74.7733 67.2348 75.04V75.12C67.2348 75.2267 67.2682 75.3133 67.3348 75.38C67.4015 75.4467 67.4682 75.48 67.5348 75.48C67.7082 75.48 67.9282 75.3733 68.1948 75.16C68.4748 74.9467 68.7615 74.6933 69.0548 74.4C69.3482 74.0933 69.6015 73.8133 69.8148 73.56C69.9082 73.4533 69.9882 73.3533 70.0548 73.26C70.1348 73.1667 70.1815 73.1067 70.1948 73.08C70.2215 73.1333 70.2348 73.1733 70.2348 73.2C70.2348 73.28 70.2082 73.3667 70.1548 73.46C70.1148 73.5533 70.0682 73.6333 70.0148 73.7C69.7615 74.0333 69.4548 74.3867 69.0948 74.76C68.7348 75.12 68.3482 75.4267 67.9348 75.68C67.5348 75.9333 67.1215 76.06 66.6948 76.06ZM72.7786 76.38C72.6853 76.38 72.6119 76.3533 72.5586 76.3C72.5053 76.26 72.5053 76.2267 72.5586 76.2C72.8519 76.1467 73.1053 76.04 73.3186 75.88C73.5319 75.7067 73.7053 75.4933 73.8386 75.24C74.1186 74.7733 74.3919 74.3067 74.6586 73.84C74.9253 73.36 75.1853 72.88 75.4386 72.4L77.3586 68.86C77.6653 68.3133 77.9319 67.7867 78.1586 67.28C78.3986 66.7733 78.5853 66.4067 78.7186 66.18C78.8119 66.0067 78.9719 65.8533 79.1986 65.72C79.4386 65.5733 79.6719 65.46 79.8986 65.38C79.8186 65.38 79.7386 65.38 79.6586 65.38C79.5786 65.3667 79.4919 65.36 79.3986 65.36C78.9853 65.36 78.5319 65.3867 78.0386 65.44C77.5586 65.48 77.0853 65.5467 76.6186 65.64C76.1653 65.7333 75.7653 65.86 75.4186 66.02C75.0719 66.18 74.8386 66.3733 74.7186 66.6C74.6653 66.72 74.6186 66.84 74.5786 66.96C74.5386 67.08 74.5186 67.2 74.5186 67.32C74.5186 67.6267 74.6253 67.8467 74.8386 67.98C74.8519 67.98 74.8586 67.9933 74.8586 68.02C74.8586 68.0467 74.8319 68.0733 74.7786 68.1C74.7386 68.1267 74.6986 68.1333 74.6586 68.12C74.5386 68.0533 74.3919 67.8933 74.2186 67.64C74.0453 67.3733 73.9386 67.1533 73.8986 66.98C73.8586 66.82 73.8386 66.6733 73.8386 66.54C73.8386 66.1933 73.9519 65.9267 74.1786 65.74C74.4053 65.54 74.6919 65.4 75.0386 65.32C75.3853 65.2267 75.7386 65.1733 76.0986 65.16C76.4719 65.1333 76.7986 65.12 77.0786 65.12C77.5053 65.12 78.0119 65.12 78.5986 65.12C79.1853 65.1067 79.7253 65.1 80.2186 65.1C80.3386 65.1 80.4719 65.1 80.6186 65.1C80.7653 65.0867 80.9186 65.08 81.0786 65.08C81.4386 65.08 81.8119 65.1 82.1986 65.14C82.5853 65.18 82.9386 65.2667 83.2586 65.4C83.5786 65.5333 83.8253 65.74 83.9986 66.02C84.1719 66.3133 84.2586 66.6333 84.2586 66.98C84.2586 67.3133 84.1919 67.6467 84.0586 67.98C83.9253 68.3133 83.7653 68.6 83.5786 68.84C83.4586 68.9867 83.3186 69.1333 83.1586 69.28C82.9986 69.4267 82.8186 69.5667 82.6186 69.7C82.4186 69.8333 82.1986 69.96 81.9586 70.08C81.7319 70.1867 81.4586 70.2733 81.1386 70.34C81.1253 70.34 81.1119 70.36 81.0986 70.4C81.0986 70.44 81.1119 70.46 81.1386 70.46C81.2053 70.4733 81.3186 70.4933 81.4786 70.52C81.6519 70.5333 81.8053 70.5533 81.9386 70.58C82.4053 70.6733 82.7919 70.8733 83.0986 71.18C83.4186 71.4733 83.5786 71.8733 83.5786 72.38C83.5786 72.9533 83.4253 73.48 83.1186 73.96C82.8253 74.44 82.4453 74.8533 81.9786 75.2C81.5119 75.5333 81.0253 75.7933 80.5186 75.98C79.8786 76.22 79.1453 76.34 78.3186 76.34C77.8253 76.34 77.3119 76.2933 76.7786 76.2C76.2453 76.1067 75.7586 75.9467 75.3186 75.72C75.2253 75.6667 75.1319 75.6267 75.0386 75.6C74.9453 75.56 74.8453 75.54 74.7386 75.54C74.5519 75.54 74.3519 75.5933 74.1386 75.7C74.0053 75.7533 73.8319 75.8533 73.6186 76C73.4053 76.1467 73.1653 76.2667 72.8986 76.36C72.8719 76.3733 72.8319 76.38 72.7786 76.38ZM77.6786 76.06C78.0253 76.06 78.3719 76.0267 78.7186 75.96C79.0653 75.88 79.3786 75.7867 79.6586 75.68C80.1519 75.4933 80.6053 75.2333 81.0186 74.9C81.4319 74.5533 81.7653 74.1467 82.0186 73.68C82.2853 73.2 82.4186 72.6667 82.4186 72.08C82.4186 71.6933 82.3186 71.4 82.1186 71.2C81.9186 70.9867 81.6653 70.84 81.3586 70.76C81.0519 70.68 80.7319 70.64 80.3986 70.64C80.1453 70.64 79.9053 70.6533 79.6786 70.68C79.4519 70.7067 79.2453 70.74 79.0586 70.78C78.6853 70.8467 78.3519 70.92 78.0586 71C78.0053 70.9733 78.0119 70.9267 78.0786 70.86C78.1453 70.78 78.2319 70.6933 78.3386 70.6C78.4586 70.5067 78.5519 70.4333 78.6186 70.38C78.6453 70.3533 78.6986 70.3133 78.7786 70.26C78.8719 70.1933 78.9453 70.16 78.9986 70.16C79.6519 70.16 80.2319 70.12 80.7386 70.04C81.2586 69.96 81.7053 69.7667 82.0786 69.46C82.4519 69.14 82.7586 68.6467 82.9986 67.98C83.1186 67.6333 83.1786 67.2933 83.1786 66.96C83.1786 66.5733 83.0853 66.24 82.8986 65.96C82.7119 65.6667 82.4119 65.4933 81.9986 65.44C81.9453 65.4267 81.8853 65.42 81.8186 65.42C81.7519 65.42 81.6853 65.42 81.6186 65.42C81.3653 65.42 81.0853 65.4533 80.7786 65.52C80.4853 65.5867 80.2653 65.7133 80.1186 65.9C79.7853 66.34 79.4653 66.84 79.1586 67.4C78.8519 67.9467 78.5586 68.5067 78.2786 69.08C77.9986 69.64 77.7319 70.1667 77.4786 70.66C77.1719 71.26 76.8586 71.8667 76.5386 72.48C76.2186 73.0933 75.9053 73.7133 75.5986 74.34C75.5186 74.5 75.4786 74.6533 75.4786 74.8C75.4786 75.0667 75.6453 75.3267 75.9786 75.58C76.2053 75.7533 76.4653 75.88 76.7586 75.96C77.0653 76.0267 77.3719 76.06 77.6786 76.06Z" fill="white"/>
</g>
<g clip-path="url(#clip2_68_13)">
<rect y="108" width="120" height="35" rx="12" fill="#4C4B4B"/>
<path d="M40.1127 136.96C39.6061 136.96 39.0794 136.847 38.5327 136.62C37.9994 136.407 37.6194 136.06 37.3927 135.58C37.2994 135.407 37.2394 135.22 37.2127 135.02C37.1994 134.833 37.1927 134.647 37.1927 134.46V134.24C37.1927 134.133 37.2061 134.033 37.2327 133.94C37.2594 133.86 37.3261 133.82 37.4327 133.82C37.4594 133.82 37.4727 133.833 37.4727 133.86C37.4727 133.94 37.4661 134.02 37.4527 134.1C37.4394 134.18 37.4327 134.267 37.4327 134.36C37.4327 134.973 37.6261 135.44 38.0127 135.76C38.4127 136.08 38.9061 136.24 39.4927 136.24C40.3327 136.24 41.1061 136.033 41.8127 135.62C42.5194 135.207 43.1594 134.64 43.7327 133.92C44.2927 133.227 44.7461 132.547 45.0927 131.88C45.4527 131.227 45.7661 130.56 46.0327 129.88C46.2994 129.2 46.5727 128.5 46.8527 127.78C46.5061 128.3 46.0261 128.78 45.4127 129.22C44.7994 129.647 44.1327 129.987 43.4127 130.24C42.7061 130.507 42.0194 130.64 41.3527 130.64C40.6461 130.64 39.9794 130.513 39.3527 130.26C38.7394 130.02 38.2461 129.653 37.8727 129.16C37.4994 128.667 37.3127 128.047 37.3127 127.3C37.3127 126.433 37.4794 125.587 37.8127 124.76C38.1461 123.933 38.5927 123.167 39.1527 122.46C39.7127 121.74 40.3394 121.12 41.0327 120.6C41.6461 120.133 42.3527 119.753 43.1527 119.46C43.9661 119.167 44.7727 119.02 45.5727 119.02C45.9061 119.02 46.2194 119.047 46.5127 119.1C46.8061 119.14 47.1061 119.233 47.4127 119.38C47.6794 119.5 47.8927 119.653 48.0527 119.84C48.2127 120.013 48.2927 120.213 48.2927 120.44C48.2927 120.467 48.2927 120.5 48.2927 120.54C48.2927 120.58 48.2861 120.613 48.2727 120.64C48.2194 120.853 48.0927 121.1 47.8927 121.38C47.7061 121.647 47.5594 121.927 47.4527 122.22C47.4394 122.273 47.3661 122.32 47.2327 122.36C47.0994 122.387 47.0461 122.373 47.0727 122.32C47.1794 122.147 47.2594 121.933 47.3127 121.68C47.3794 121.427 47.4127 121.173 47.4127 120.92C47.4127 120.733 47.3927 120.56 47.3527 120.4C47.3261 120.227 47.2727 120.08 47.1927 119.96C47.0594 119.72 46.8527 119.553 46.5727 119.46C46.2927 119.367 45.9927 119.32 45.6727 119.32C45.3661 119.32 45.0594 119.353 44.7527 119.42C44.4461 119.487 44.1794 119.56 43.9527 119.64C43.1794 119.92 42.4394 120.36 41.7327 120.96C41.1061 121.507 40.5461 122.14 40.0527 122.86C39.5727 123.58 39.1927 124.32 38.9127 125.08C38.6327 125.84 38.4927 126.567 38.4927 127.26C38.4927 127.967 38.6261 128.54 38.8927 128.98C39.1727 129.42 39.5394 129.747 39.9927 129.96C40.4461 130.16 40.9327 130.26 41.4527 130.26C42.5327 130.26 43.4794 130.013 44.2927 129.52C45.1194 129.013 45.8194 128.353 46.3927 127.54C46.9661 126.727 47.4061 125.853 47.7127 124.92H45.6527C45.4927 124.92 45.2727 124.933 44.9927 124.96C44.7127 124.973 44.4261 125.02 44.1327 125.1C43.8394 125.167 43.5927 125.28 43.3927 125.44C43.1927 125.6 43.0927 125.82 43.0927 126.1C43.0927 126.193 43.1061 126.293 43.1327 126.4C43.1594 126.493 43.1794 126.567 43.1927 126.62L43.0127 126.74C42.9194 126.567 42.8061 126.387 42.6727 126.2C42.5527 126 42.4861 125.84 42.4727 125.72C42.4594 125.613 42.4661 125.473 42.4927 125.3C42.5194 125.127 42.6061 124.973 42.7527 124.84C42.9127 124.693 43.1394 124.6 43.4327 124.56C43.7394 124.507 44.0527 124.48 44.3727 124.48C44.6661 124.48 44.9461 124.493 45.2127 124.52C45.4794 124.533 45.6927 124.54 45.8527 124.54H49.6527L49.4327 124.78C49.2461 124.78 49.0394 124.813 48.8127 124.88C48.5861 124.933 48.3994 125.053 48.2527 125.24C47.9594 125.613 47.7327 126.033 47.5727 126.5C47.4261 126.967 47.2727 127.46 47.1127 127.98C46.8461 128.927 46.5861 129.853 46.3327 130.76C46.0794 131.68 45.7394 132.547 45.3127 133.36C44.8994 134.187 44.2927 134.947 43.4927 135.64C43.0661 136 42.5327 136.307 41.8927 136.56C41.2527 136.827 40.6594 136.96 40.1127 136.96ZM49.8762 130.06C49.7428 130.06 49.6295 130.033 49.5362 129.98C49.4428 129.927 49.3962 129.827 49.3962 129.68C49.3962 129.493 49.4428 129.273 49.5362 129.02C49.6428 128.767 49.7562 128.513 49.8762 128.26C49.9962 128.007 50.0962 127.8 50.1762 127.64C50.3362 127.333 50.4895 127.027 50.6362 126.72C50.7828 126.413 50.9095 126.153 51.0162 125.94C51.1228 125.74 51.1762 125.607 51.1762 125.54C51.1762 125.433 51.0962 125.433 50.9362 125.54C50.7895 125.647 50.6495 125.753 50.5162 125.86C50.2228 126.14 49.9162 126.473 49.5962 126.86C49.2762 127.233 49.0295 127.533 48.8562 127.76C48.8162 127.813 48.7828 127.84 48.7562 127.84C48.7295 127.84 48.7162 127.807 48.7162 127.74C48.7162 127.633 48.7495 127.533 48.8162 127.44C49.0028 127.173 49.2228 126.88 49.4762 126.56C49.7295 126.24 49.9895 125.933 50.2562 125.64C50.5095 125.373 50.7695 125.113 51.0362 124.86C51.3028 124.607 51.6428 124.48 52.0562 124.48C52.3362 124.48 52.4762 124.587 52.4762 124.8C52.4762 124.987 52.3962 125.2 52.2362 125.44C52.1428 125.587 51.9962 125.833 51.7962 126.18C51.5962 126.527 51.3895 126.907 51.1762 127.32C50.9762 127.72 50.8028 128.093 50.6562 128.44C50.5095 128.787 50.4362 129.04 50.4362 129.2C50.4362 129.387 50.5295 129.48 50.7162 129.48C50.8628 129.48 51.0428 129.407 51.2562 129.26C51.4695 129.1 51.6895 128.913 51.9162 128.7C52.3295 128.3 52.7028 127.867 53.0362 127.4C53.3828 126.92 53.6762 126.46 53.9162 126.02C54.1695 125.58 54.3695 125.22 54.5162 124.94C54.5428 124.887 54.5695 124.827 54.5962 124.76C54.6362 124.68 54.6962 124.633 54.7762 124.62C54.8562 124.607 55.0295 124.6 55.2962 124.6C55.5628 124.6 55.8095 124.547 56.0362 124.44H56.0762C56.1162 124.44 56.1362 124.46 56.1362 124.5C56.1362 124.607 56.0495 124.687 55.8762 124.74C55.7162 124.793 55.5295 124.953 55.3162 125.22C55.1162 125.487 54.9162 125.813 54.7162 126.2C54.5162 126.573 54.3362 126.96 54.1762 127.36C54.0162 127.76 53.8962 128.127 53.8162 128.46C53.7362 128.793 53.7162 129.04 53.7562 129.2C53.8095 129.387 53.9028 129.48 54.0362 129.48C54.2095 129.48 54.4495 129.373 54.7562 129.16C55.0762 128.947 55.4028 128.693 55.7362 128.4C56.0695 128.093 56.3428 127.813 56.5562 127.56C56.6495 127.453 56.7362 127.347 56.8162 127.24C56.8962 127.133 56.9495 127.067 56.9762 127.04C56.9895 127.053 57.0028 127.08 57.0162 127.12C57.0295 127.147 57.0362 127.173 57.0362 127.2C57.0228 127.293 56.9895 127.387 56.9362 127.48C56.8828 127.56 56.8228 127.633 56.7562 127.7C56.5028 128.033 56.1962 128.387 55.8362 128.76C55.4895 129.12 55.1095 129.427 54.6962 129.68C54.2962 129.933 53.8828 130.06 53.4562 130.06C53.3228 130.06 53.1695 130.027 52.9962 129.96C52.8362 129.893 52.7562 129.747 52.7562 129.52C52.7562 129.347 52.8028 129.113 52.8962 128.82C52.9895 128.513 53.0895 128.213 53.1962 127.92C53.3162 127.613 53.4162 127.387 53.4962 127.24C53.3228 127.493 53.1095 127.78 52.8562 128.1C52.6162 128.407 52.3695 128.68 52.1162 128.92C51.7828 129.24 51.4228 129.513 51.0362 129.74C50.6628 129.953 50.2762 130.06 49.8762 130.06ZM57.7477 130.16C57.2011 130.16 56.8211 130.053 56.6077 129.84C56.3944 129.627 56.2877 129.367 56.2877 129.06C56.2877 128.673 56.3877 128.26 56.5877 127.82C56.8011 127.38 57.0011 127.007 57.1877 126.7C57.4011 126.38 57.6877 126.047 58.0477 125.7C58.4077 125.353 58.8011 125.06 59.2277 124.82C59.6544 124.58 60.0677 124.46 60.4677 124.46C60.8144 124.46 61.0544 124.547 61.1877 124.72C61.3211 124.88 61.3877 125.073 61.3877 125.3C61.3877 125.713 61.2611 126.053 61.0077 126.32C60.7677 126.587 60.4677 126.807 60.1077 126.98C59.7477 127.14 59.4011 127.273 59.0677 127.38C58.8677 127.433 58.6344 127.487 58.3677 127.54C58.1011 127.593 57.8477 127.62 57.6077 127.62C57.5144 127.86 57.4411 128.093 57.3877 128.32C57.3344 128.547 57.3077 128.753 57.3077 128.94C57.3077 129.167 57.3611 129.353 57.4677 129.5C57.5877 129.647 57.7811 129.72 58.0477 129.72C58.1544 129.72 58.2811 129.707 58.4277 129.68C58.5744 129.653 58.7344 129.613 58.9077 129.56C59.3077 129.427 59.7011 129.213 60.0877 128.92C60.4744 128.627 60.8277 128.313 61.1477 127.98C61.4811 127.633 61.7344 127.347 61.9077 127.12C61.9477 127.16 61.9677 127.207 61.9677 127.26C61.9677 127.327 61.9211 127.433 61.8277 127.58C61.5611 127.953 61.2144 128.34 60.7877 128.74C60.3611 129.14 59.8877 129.48 59.3677 129.76C58.8477 130.027 58.3077 130.16 57.7477 130.16ZM57.7677 127.22C57.9411 127.233 58.1344 127.233 58.3477 127.22C58.5744 127.193 58.7944 127.147 59.0077 127.08C59.5544 126.92 59.9477 126.667 60.1877 126.32C60.4411 125.96 60.5677 125.64 60.5677 125.36C60.5677 125.2 60.5344 125.067 60.4677 124.96C60.4011 124.853 60.2944 124.8 60.1477 124.8C59.7611 124.8 59.4144 124.947 59.1077 125.24C58.8011 125.52 58.5344 125.847 58.3077 126.22C58.0811 126.593 57.9011 126.927 57.7677 127.22ZM62.7882 130.32C62.5482 130.32 62.2949 130.287 62.0282 130.22C61.7615 130.153 61.5215 130.047 61.3082 129.9C61.1082 129.74 60.9749 129.527 60.9082 129.26C60.8949 129.22 60.8882 129.16 60.8882 129.08C60.8882 128.893 60.9282 128.687 61.0082 128.46C61.1015 128.233 61.2149 128.073 61.3482 127.98C61.4015 127.953 61.4415 127.953 61.4682 127.98C61.5082 128.007 61.5149 128.033 61.4882 128.06C61.4749 128.1 61.4549 128.153 61.4282 128.22C61.4015 128.273 61.3815 128.333 61.3682 128.4C61.3282 128.747 61.4015 129.053 61.5882 129.32C61.6682 129.427 61.7615 129.527 61.8682 129.62C61.9882 129.713 62.1015 129.793 62.2082 129.86C62.3015 129.913 62.4149 129.953 62.5482 129.98C62.6815 129.993 62.8149 130 62.9482 130C63.1615 130 63.3682 129.973 63.5682 129.92C63.7682 129.867 63.9149 129.78 64.0082 129.66C64.1815 129.447 64.2682 129.207 64.2682 128.94C64.2682 128.74 64.2149 128.527 64.1082 128.3C64.0015 128.073 63.8349 127.833 63.6082 127.58C63.4615 127.42 63.3215 127.247 63.1882 127.06C63.0549 126.873 62.9682 126.673 62.9282 126.46C62.9149 126.42 62.9015 126.38 62.8882 126.34C62.8882 126.3 62.8882 126.26 62.8882 126.22C62.7149 126.473 62.5349 126.713 62.3482 126.94C62.1749 127.153 62.0215 127.34 61.8882 127.5C61.8349 127.58 61.7882 127.62 61.7482 127.62C61.7215 127.62 61.7082 127.593 61.7082 127.54C61.7082 127.42 61.7615 127.293 61.8682 127.16C61.9749 127.04 62.0949 126.893 62.2282 126.72C62.3615 126.533 62.4682 126.387 62.5482 126.28C62.7749 125.947 62.9415 125.687 63.0482 125.5C63.1682 125.3 63.2949 125.12 63.4282 124.96C63.5749 124.787 63.7549 124.647 63.9682 124.54C64.1949 124.433 64.4282 124.38 64.6682 124.38C64.9482 124.38 65.2015 124.427 65.4282 124.52C65.6682 124.6 65.7949 124.813 65.8082 125.16C65.8082 125.32 65.7749 125.487 65.7082 125.66C65.6549 125.82 65.5949 125.973 65.5282 126.12C65.4882 126.2 65.4282 126.26 65.3482 126.3C65.2815 126.327 65.2482 126.313 65.2482 126.26C65.2482 126.207 65.2549 126.147 65.2682 126.08C65.2815 126.013 65.2882 125.953 65.2882 125.9C65.2882 125.673 65.2482 125.473 65.1682 125.3C65.1015 125.113 65.0015 124.98 64.8682 124.9C64.7349 124.807 64.5949 124.76 64.4482 124.76C64.2349 124.76 64.0282 124.847 63.8282 125.02C63.6282 125.18 63.5282 125.393 63.5282 125.66C63.5282 125.687 63.5282 125.72 63.5282 125.76C63.5282 125.8 63.5349 125.833 63.5482 125.86C63.6015 126.073 63.7615 126.313 64.0282 126.58C64.2949 126.847 64.5015 127.08 64.6482 127.28C64.9015 127.627 65.0282 127.98 65.0282 128.34C65.0282 128.7 64.9215 129.033 64.7082 129.34C64.5082 129.633 64.2349 129.867 63.8882 130.04C63.5549 130.227 63.1882 130.32 62.7882 130.32ZM67.0366 130.06C66.9033 130.06 66.79 130.033 66.6966 129.98C66.6033 129.927 66.5566 129.827 66.5566 129.68C66.5566 129.493 66.6033 129.273 66.6966 129.02C66.8033 128.767 66.9166 128.513 67.0366 128.26C67.1566 128.007 67.2566 127.8 67.3366 127.64C67.4033 127.52 67.49 127.333 67.5966 127.08C67.7166 126.813 67.8366 126.54 67.9566 126.26C68.09 125.967 68.1966 125.72 68.2766 125.52C68.37 125.32 68.4166 125.22 68.4166 125.22C68.2966 125.353 68.1366 125.54 67.9366 125.78C67.75 126.02 67.5433 126.273 67.3166 126.54C67.1033 126.793 66.9033 127.033 66.7166 127.26C66.5433 127.487 66.4166 127.653 66.3366 127.76C66.2966 127.813 66.2633 127.84 66.2366 127.84C66.21 127.84 66.1966 127.807 66.1966 127.74C66.1966 127.633 66.23 127.533 66.2966 127.44C66.4566 127.24 66.65 127 66.8766 126.72C67.1033 126.427 67.33 126.133 67.5566 125.84C67.7966 125.547 68.0033 125.287 68.1766 125.06C68.07 125.06 67.93 125.067 67.7566 125.08C67.5966 125.093 67.45 125.113 67.3166 125.14C67.1833 125.153 67.11 125.16 67.0966 125.16C67.03 125.16 67.0366 125.107 67.1166 125C67.1966 124.893 67.3033 124.787 67.4366 124.68C67.57 124.573 67.67 124.52 67.7366 124.52C67.75 124.52 67.8566 124.527 68.0566 124.54C68.2566 124.54 68.4033 124.54 68.4966 124.54C68.7633 124.18 69.0233 123.767 69.2766 123.3C69.5433 122.833 69.8033 122.32 70.0566 121.76C70.1633 121.747 70.3433 121.673 70.5966 121.54C70.8633 121.393 71.07 121.247 71.2166 121.1C71.2833 121.033 71.3366 121 71.3766 121C71.4566 121 71.4566 121.053 71.3766 121.16C71.2833 121.267 71.1233 121.493 70.8966 121.84C70.67 122.173 70.4166 122.58 70.1366 123.06C69.8566 123.527 69.59 124.02 69.3366 124.54H70.9566C71.1033 124.54 71.1766 124.56 71.1766 124.6C71.1766 124.653 71.0766 124.707 70.8766 124.76C70.65 124.827 70.41 124.867 70.1566 124.88C69.9166 124.893 69.69 124.92 69.4766 124.96C69.2766 125 69.13 125.087 69.0366 125.22C68.9566 125.313 68.8433 125.513 68.6966 125.82C68.55 126.127 68.39 126.48 68.2166 126.88C68.0566 127.267 67.9166 127.66 67.7966 128.06C67.6766 128.447 67.6033 128.773 67.5766 129.04V129.12C67.5766 129.227 67.61 129.313 67.6766 129.38C67.7433 129.447 67.81 129.48 67.8766 129.48C68.05 129.48 68.27 129.373 68.5366 129.16C68.8166 128.947 69.1033 128.693 69.3966 128.4C69.69 128.093 69.9433 127.813 70.1566 127.56C70.25 127.453 70.33 127.353 70.3966 127.26C70.4766 127.167 70.5233 127.107 70.5366 127.08C70.5633 127.133 70.5766 127.173 70.5766 127.2C70.5766 127.28 70.55 127.367 70.4966 127.46C70.4566 127.553 70.41 127.633 70.3566 127.7C70.1033 128.033 69.7966 128.387 69.4366 128.76C69.0766 129.12 68.69 129.427 68.2766 129.68C67.8766 129.933 67.4633 130.06 67.0366 130.06ZM77.8604 130.58C77.1537 130.58 76.4737 130.473 75.8204 130.26C75.1804 130.06 74.6604 129.72 74.2604 129.24C73.8604 128.76 73.6604 128.113 73.6604 127.3C73.6604 126.433 73.8271 125.587 74.1604 124.76C74.4937 123.933 74.9404 123.167 75.5004 122.46C76.0604 121.74 76.6871 121.12 77.3804 120.6C77.9937 120.133 78.7004 119.753 79.5004 119.46C80.3137 119.167 81.1204 119.02 81.9204 119.02C82.2537 119.02 82.5671 119.047 82.8604 119.1C83.1537 119.14 83.4537 119.233 83.7604 119.38C84.0271 119.5 84.2404 119.653 84.4004 119.84C84.5604 120.013 84.6404 120.213 84.6404 120.44C84.6404 120.467 84.6404 120.5 84.6404 120.54C84.6404 120.58 84.6337 120.613 84.6204 120.64C84.5671 120.853 84.4404 121.1 84.2404 121.38C84.0537 121.647 83.9071 121.927 83.8004 122.22C83.7871 122.273 83.7137 122.32 83.5804 122.36C83.4471 122.387 83.3937 122.373 83.4204 122.32C83.5271 122.147 83.6071 121.933 83.6604 121.68C83.7271 121.427 83.7604 121.173 83.7604 120.92C83.7604 120.733 83.7404 120.56 83.7004 120.4C83.6737 120.227 83.6204 120.08 83.5404 119.96C83.4071 119.72 83.2004 119.553 82.9204 119.46C82.6404 119.367 82.3404 119.32 82.0204 119.32C81.7137 119.32 81.4071 119.353 81.1004 119.42C80.7937 119.487 80.5271 119.56 80.3004 119.64C79.5271 119.92 78.7871 120.36 78.0804 120.96C77.4537 121.507 76.8937 122.14 76.4004 122.86C75.9204 123.58 75.5404 124.32 75.2604 125.08C74.9804 125.84 74.8404 126.567 74.8404 127.26C74.8404 127.967 74.9937 128.527 75.3004 128.94C75.6071 129.353 76.0071 129.647 76.5004 129.82C76.9937 129.993 77.5271 130.08 78.1004 130.08C78.6071 130.08 79.1071 130.027 79.6004 129.92C80.1071 129.813 80.5671 129.68 80.9804 129.52C81.6871 129.253 82.3204 128.927 82.8804 128.54C83.4537 128.153 83.9871 127.653 84.4804 127.04C84.5471 126.973 84.5937 126.94 84.6204 126.94C84.6604 126.94 84.6804 126.967 84.6804 127.02C84.6804 127.127 84.6271 127.253 84.5204 127.4C84.0671 128.013 83.5537 128.527 82.9804 128.94C82.4071 129.353 81.7937 129.693 81.1404 129.96C80.7004 130.133 80.1871 130.28 79.6004 130.4C79.0271 130.52 78.4471 130.58 77.8604 130.58Z" fill="white"/>
</g>
<defs>
<clipPath id="clip0_68_13">
<rect width="120" height="35" rx="12" fill="white"/>
</clipPath>
<clipPath id="clip1_68_13">
<rect y="54" width="120" height="35" rx="12" fill="white"/>
</clipPath>
<clipPath id="clip2_68_13">
<rect y="108" width="120" height="35" rx="12" fill="white"/>
</clipPath>
</defs>
</svg>
