<svg width="120" height="35" viewBox="0 0 120 35" fill="none" xmlns="http://www.w3.org/2000/svg">
<g clip-path="url(#clip0_68_5)">
<rect width="120" height="35" rx="12" fill="#4C4B4B"/>
<path d="M37.7104 28.96C37.2037 28.96 36.6771 28.8467 36.1304 28.62C35.5971 28.4067 35.2171 28.06 34.9904 27.58C34.8971 27.4067 34.8371 27.22 34.8104 27.02C34.7971 26.8333 34.7904 26.6467 34.7904 26.46V26.24C34.7904 26.1333 34.8037 26.0333 34.8304 25.94C34.8571 25.86 34.9237 25.82 35.0304 25.82C35.0571 25.82 35.0704 25.8333 35.0704 25.86C35.0704 25.94 35.0637 26.02 35.0504 26.1C35.0371 26.18 35.0304 26.2667 35.0304 26.36C35.0304 26.9733 35.2237 27.44 35.6104 27.76C36.0104 28.08 36.5037 28.24 37.0904 28.24C37.9304 28.24 38.7037 28.0333 39.4104 27.62C40.1171 27.2067 40.7571 26.64 41.3304 25.92C41.8904 25.2267 42.3437 24.5467 42.6904 23.88C43.0504 23.2267 43.3637 22.56 43.6304 21.88C43.8971 21.2 44.1704 20.5 44.4504 19.78C44.1037 20.3 43.6237 20.78 43.0104 21.22C42.3971 21.6467 41.7304 21.9867 41.0104 22.24C40.3037 22.5067 39.6171 22.64 38.9504 22.64C38.2437 22.64 37.5771 22.5133 36.9504 22.26C36.3371 22.02 35.8437 21.6533 35.4704 21.16C35.0971 20.6667 34.9104 20.0467 34.9104 19.3C34.9104 18.4333 35.0771 17.5867 35.4104 16.76C35.7437 15.9333 36.1904 15.1667 36.7504 14.46C37.3104 13.74 37.9371 13.12 38.6304 12.6C39.2437 12.1333 39.9504 11.7533 40.7504 11.46C41.5637 11.1667 42.3704 11.02 43.1704 11.02C43.5037 11.02 43.8171 11.0467 44.1104 11.1C44.4037 11.14 44.7037 11.2333 45.0104 11.38C45.2771 11.5 45.4904 11.6533 45.6504 11.84C45.8104 12.0133 45.8904 12.2133 45.8904 12.44C45.8904 12.4667 45.8904 12.5 45.8904 12.54C45.8904 12.58 45.8837 12.6133 45.8704 12.64C45.8171 12.8533 45.6904 13.1 45.4904 13.38C45.3037 13.6467 45.1571 13.9267 45.0504 14.22C45.0371 14.2733 44.9637 14.32 44.8304 14.36C44.6971 14.3867 44.6437 14.3733 44.6704 14.32C44.7771 14.1467 44.8571 13.9333 44.9104 13.68C44.9771 13.4267 45.0104 13.1733 45.0104 12.92C45.0104 12.7333 44.9904 12.56 44.9504 12.4C44.9237 12.2267 44.8704 12.08 44.7904 11.96C44.6571 11.72 44.4504 11.5533 44.1704 11.46C43.8904 11.3667 43.5904 11.32 43.2704 11.32C42.9637 11.32 42.6571 11.3533 42.3504 11.42C42.0437 11.4867 41.7771 11.56 41.5504 11.64C40.7771 11.92 40.0371 12.36 39.3304 12.96C38.7037 13.5067 38.1437 14.14 37.6504 14.86C37.1704 15.58 36.7904 16.32 36.5104 17.08C36.2304 17.84 36.0904 18.5667 36.0904 19.26C36.0904 19.9667 36.2237 20.54 36.4904 20.98C36.7704 21.42 37.1371 21.7467 37.5904 21.96C38.0437 22.16 38.5304 22.26 39.0504 22.26C40.1304 22.26 41.0771 22.0133 41.8904 21.52C42.7171 21.0133 43.4171 20.3533 43.9904 19.54C44.5637 18.7267 45.0037 17.8533 45.3104 16.92H43.2504C43.0904 16.92 42.8704 16.9333 42.5904 16.96C42.3104 16.9733 42.0237 17.02 41.7304 17.1C41.4371 17.1667 41.1904 17.28 40.9904 17.44C40.7904 17.6 40.6904 17.82 40.6904 18.1C40.6904 18.1933 40.7037 18.2933 40.7304 18.4C40.7571 18.4933 40.7771 18.5667 40.7904 18.62L40.6104 18.74C40.5171 18.5667 40.4037 18.3867 40.2704 18.2C40.1504 18 40.0837 17.84 40.0704 17.72C40.0571 17.6133 40.0637 17.4733 40.0904 17.3C40.1171 17.1267 40.2037 16.9733 40.3504 16.84C40.5104 16.6933 40.7371 16.6 41.0304 16.56C41.3371 16.5067 41.6504 16.48 41.9704 16.48C42.2637 16.48 42.5437 16.4933 42.8104 16.52C43.0771 16.5333 43.2904 16.54 43.4504 16.54H47.2504L47.0304 16.78C46.8437 16.78 46.6371 16.8133 46.4104 16.88C46.1837 16.9333 45.9971 17.0533 45.8504 17.24C45.5571 17.6133 45.3304 18.0333 45.1704 18.5C45.0237 18.9667 44.8704 19.46 44.7104 19.98C44.4437 20.9267 44.1837 21.8533 43.9304 22.76C43.6771 23.68 43.3371 24.5467 42.9104 25.36C42.4971 26.1867 41.8904 26.9467 41.0904 27.64C40.6637 28 40.1304 28.3067 39.4904 28.56C38.8504 28.8267 38.2571 28.96 37.7104 28.96ZM47.4738 22.06C47.3405 22.06 47.2272 22.0333 47.1338 21.98C47.0405 21.9267 46.9938 21.8267 46.9938 21.68C46.9938 21.4933 47.0405 21.2733 47.1338 21.02C47.2405 20.7667 47.3538 20.5133 47.4738 20.26C47.5938 20.0067 47.6938 19.8 47.7738 19.64C47.9338 19.3333 48.0872 19.0267 48.2338 18.72C48.3805 18.4133 48.5072 18.1533 48.6138 17.94C48.7205 17.74 48.7738 17.6067 48.7738 17.54C48.7738 17.4333 48.6938 17.4333 48.5338 17.54C48.3872 17.6467 48.2472 17.7533 48.1138 17.86C47.8205 18.14 47.5138 18.4733 47.1938 18.86C46.8738 19.2333 46.6272 19.5333 46.4538 19.76C46.4138 19.8133 46.3805 19.84 46.3538 19.84C46.3272 19.84 46.3138 19.8067 46.3138 19.74C46.3138 19.6333 46.3472 19.5333 46.4138 19.44C46.6005 19.1733 46.8205 18.88 47.0738 18.56C47.3272 18.24 47.5872 17.9333 47.8538 17.64C48.1072 17.3733 48.3672 17.1133 48.6338 16.86C48.9005 16.6067 49.2405 16.48 49.6538 16.48C49.9338 16.48 50.0738 16.5867 50.0738 16.8C50.0738 16.9867 49.9938 17.2 49.8338 17.44C49.7405 17.5867 49.5938 17.8333 49.3938 18.18C49.1938 18.5267 48.9872 18.9067 48.7738 19.32C48.5738 19.72 48.4005 20.0933 48.2538 20.44C48.1072 20.7867 48.0338 21.04 48.0338 21.2C48.0338 21.3867 48.1272 21.48 48.3138 21.48C48.4605 21.48 48.6405 21.4067 48.8538 21.26C49.0672 21.1 49.2872 20.9133 49.5138 20.7C49.9272 20.3 50.3005 19.8667 50.6338 19.4C50.9805 18.92 51.2738 18.46 51.5138 18.02C51.7672 17.58 51.9672 17.22 52.1138 16.94C52.1405 16.8867 52.1672 16.8267 52.1938 16.76C52.2338 16.68 52.2938 16.6333 52.3738 16.62C52.4538 16.6067 52.6272 16.6 52.8938 16.6C53.1605 16.6 53.4072 16.5467 53.6338 16.44H53.6738C53.7138 16.44 53.7338 16.46 53.7338 16.5C53.7338 16.6067 53.6472 16.6867 53.4738 16.74C53.3138 16.7933 53.1272 16.9533 52.9138 17.22C52.7138 17.4867 52.5138 17.8133 52.3138 18.2C52.1138 18.5733 51.9338 18.96 51.7738 19.36C51.6138 19.76 51.4938 20.1267 51.4138 20.46C51.3338 20.7933 51.3138 21.04 51.3538 21.2C51.4072 21.3867 51.5005 21.48 51.6338 21.48C51.8072 21.48 52.0472 21.3733 52.3538 21.16C52.6738 20.9467 53.0005 20.6933 53.3338 20.4C53.6672 20.0933 53.9405 19.8133 54.1538 19.56C54.2472 19.4533 54.3338 19.3467 54.4138 19.24C54.4938 19.1333 54.5472 19.0667 54.5738 19.04C54.5872 19.0533 54.6005 19.08 54.6138 19.12C54.6272 19.1467 54.6338 19.1733 54.6338 19.2C54.6205 19.2933 54.5872 19.3867 54.5338 19.48C54.4805 19.56 54.4205 19.6333 54.3538 19.7C54.1005 20.0333 53.7938 20.3867 53.4338 20.76C53.0872 21.12 52.7072 21.4267 52.2938 21.68C51.8938 21.9333 51.4805 22.06 51.0538 22.06C50.9205 22.06 50.7672 22.0267 50.5938 21.96C50.4338 21.8933 50.3538 21.7467 50.3538 21.52C50.3538 21.3467 50.4005 21.1133 50.4938 20.82C50.5872 20.5133 50.6872 20.2133 50.7938 19.92C50.9138 19.6133 51.0138 19.3867 51.0938 19.24C50.9205 19.4933 50.7072 19.78 50.4538 20.1C50.2138 20.4067 49.9672 20.68 49.7138 20.92C49.3805 21.24 49.0205 21.5133 48.6338 21.74C48.2605 21.9533 47.8738 22.06 47.4738 22.06ZM55.3454 22.16C54.7987 22.16 54.4187 22.0533 54.2054 21.84C53.9921 21.6267 53.8854 21.3667 53.8854 21.06C53.8854 20.6733 53.9854 20.26 54.1854 19.82C54.3987 19.38 54.5987 19.0067 54.7854 18.7C54.9987 18.38 55.2854 18.0467 55.6454 17.7C56.0054 17.3533 56.3987 17.06 56.8254 16.82C57.2521 16.58 57.6654 16.46 58.0654 16.46C58.4121 16.46 58.6521 16.5467 58.7854 16.72C58.9187 16.88 58.9854 17.0733 58.9854 17.3C58.9854 17.7133 58.8587 18.0533 58.6054 18.32C58.3654 18.5867 58.0654 18.8067 57.7054 18.98C57.3454 19.14 56.9987 19.2733 56.6654 19.38C56.4654 19.4333 56.2321 19.4867 55.9654 19.54C55.6987 19.5933 55.4454 19.62 55.2054 19.62C55.1121 19.86 55.0387 20.0933 54.9854 20.32C54.9321 20.5467 54.9054 20.7533 54.9054 20.94C54.9054 21.1667 54.9587 21.3533 55.0654 21.5C55.1854 21.6467 55.3787 21.72 55.6454 21.72C55.7521 21.72 55.8787 21.7067 56.0254 21.68C56.1721 21.6533 56.3321 21.6133 56.5054 21.56C56.9054 21.4267 57.2987 21.2133 57.6854 20.92C58.0721 20.6267 58.4254 20.3133 58.7454 19.98C59.0787 19.6333 59.3321 19.3467 59.5054 19.12C59.5454 19.16 59.5654 19.2067 59.5654 19.26C59.5654 19.3267 59.5187 19.4333 59.4254 19.58C59.1587 19.9533 58.8121 20.34 58.3854 20.74C57.9587 21.14 57.4854 21.48 56.9654 21.76C56.4454 22.0267 55.9054 22.16 55.3454 22.16ZM55.3654 19.22C55.5387 19.2333 55.7321 19.2333 55.9454 19.22C56.1721 19.1933 56.3921 19.1467 56.6054 19.08C57.1521 18.92 57.5454 18.6667 57.7854 18.32C58.0387 17.96 58.1654 17.64 58.1654 17.36C58.1654 17.2 58.1321 17.0667 58.0654 16.96C57.9987 16.8533 57.8921 16.8 57.7454 16.8C57.3587 16.8 57.0121 16.9467 56.7054 17.24C56.3987 17.52 56.1321 17.8467 55.9054 18.22C55.6787 18.5933 55.4987 18.9267 55.3654 19.22ZM60.3859 22.32C60.1459 22.32 59.8925 22.2867 59.6259 22.22C59.3592 22.1533 59.1192 22.0467 58.9059 21.9C58.7059 21.74 58.5725 21.5267 58.5059 21.26C58.4925 21.22 58.4859 21.16 58.4859 21.08C58.4859 20.8933 58.5259 20.6867 58.6059 20.46C58.6992 20.2333 58.8125 20.0733 58.9459 19.98C58.9992 19.9533 59.0392 19.9533 59.0659 19.98C59.1059 20.0067 59.1125 20.0333 59.0859 20.06C59.0725 20.1 59.0525 20.1533 59.0259 20.22C58.9992 20.2733 58.9792 20.3333 58.9659 20.4C58.9259 20.7467 58.9992 21.0533 59.1859 21.32C59.2659 21.4267 59.3592 21.5267 59.4659 21.62C59.5859 21.7133 59.6992 21.7933 59.8059 21.86C59.8992 21.9133 60.0125 21.9533 60.1459 21.98C60.2792 21.9933 60.4125 22 60.5459 22C60.7592 22 60.9659 21.9733 61.1659 21.92C61.3659 21.8667 61.5125 21.78 61.6059 21.66C61.7792 21.4467 61.8659 21.2067 61.8659 20.94C61.8659 20.74 61.8125 20.5267 61.7059 20.3C61.5992 20.0733 61.4325 19.8333 61.2059 19.58C61.0592 19.42 60.9192 19.2467 60.7859 19.06C60.6525 18.8733 60.5659 18.6733 60.5259 18.46C60.5125 18.42 60.4992 18.38 60.4859 18.34C60.4859 18.3 60.4859 18.26 60.4859 18.22C60.3125 18.4733 60.1325 18.7133 59.9459 18.94C59.7725 19.1533 59.6192 19.34 59.4859 19.5C59.4325 19.58 59.3859 19.62 59.3459 19.62C59.3192 19.62 59.3059 19.5933 59.3059 19.54C59.3059 19.42 59.3592 19.2933 59.4659 19.16C59.5725 19.04 59.6925 18.8933 59.8259 18.72C59.9592 18.5333 60.0659 18.3867 60.1459 18.28C60.3725 17.9467 60.5392 17.6867 60.6459 17.5C60.7659 17.3 60.8925 17.12 61.0259 16.96C61.1725 16.7867 61.3525 16.6467 61.5659 16.54C61.7925 16.4333 62.0259 16.38 62.2659 16.38C62.5459 16.38 62.7992 16.4267 63.0259 16.52C63.2659 16.6 63.3925 16.8133 63.4059 17.16C63.4059 17.32 63.3725 17.4867 63.3059 17.66C63.2525 17.82 63.1925 17.9733 63.1259 18.12C63.0859 18.2 63.0259 18.26 62.9459 18.3C62.8792 18.3267 62.8459 18.3133 62.8459 18.26C62.8459 18.2067 62.8525 18.1467 62.8659 18.08C62.8792 18.0133 62.8859 17.9533 62.8859 17.9C62.8859 17.6733 62.8459 17.4733 62.7659 17.3C62.6992 17.1133 62.5992 16.98 62.4659 16.9C62.3325 16.8067 62.1925 16.76 62.0459 16.76C61.8325 16.76 61.6259 16.8467 61.4259 17.02C61.2259 17.18 61.1259 17.3933 61.1259 17.66C61.1259 17.6867 61.1259 17.72 61.1259 17.76C61.1259 17.8 61.1325 17.8333 61.1459 17.86C61.1992 18.0733 61.3592 18.3133 61.6259 18.58C61.8925 18.8467 62.0992 19.08 62.2459 19.28C62.4992 19.6267 62.6259 19.98 62.6259 20.34C62.6259 20.7 62.5192 21.0333 62.3059 21.34C62.1059 21.6333 61.8325 21.8667 61.4859 22.04C61.1525 22.2267 60.7859 22.32 60.3859 22.32ZM64.6343 22.06C64.501 22.06 64.3876 22.0333 64.2943 21.98C64.201 21.9267 64.1543 21.8267 64.1543 21.68C64.1543 21.4933 64.201 21.2733 64.2943 21.02C64.401 20.7667 64.5143 20.5133 64.6343 20.26C64.7543 20.0067 64.8543 19.8 64.9343 19.64C65.001 19.52 65.0876 19.3333 65.1943 19.08C65.3143 18.8133 65.4343 18.54 65.5543 18.26C65.6876 17.9667 65.7943 17.72 65.8743 17.52C65.9676 17.32 66.0143 17.22 66.0143 17.22C65.8943 17.3533 65.7343 17.54 65.5343 17.78C65.3476 18.02 65.141 18.2733 64.9143 18.54C64.701 18.7933 64.501 19.0333 64.3143 19.26C64.141 19.4867 64.0143 19.6533 63.9343 19.76C63.8943 19.8133 63.861 19.84 63.8343 19.84C63.8076 19.84 63.7943 19.8067 63.7943 19.74C63.7943 19.6333 63.8276 19.5333 63.8943 19.44C64.0543 19.24 64.2476 19 64.4743 18.72C64.701 18.4267 64.9276 18.1333 65.1543 17.84C65.3943 17.5467 65.601 17.2867 65.7743 17.06C65.6676 17.06 65.5276 17.0667 65.3543 17.08C65.1943 17.0933 65.0476 17.1133 64.9143 17.14C64.781 17.1533 64.7076 17.16 64.6943 17.16C64.6276 17.16 64.6343 17.1067 64.7143 17C64.7943 16.8933 64.901 16.7867 65.0343 16.68C65.1676 16.5733 65.2676 16.52 65.3343 16.52C65.3476 16.52 65.4543 16.5267 65.6543 16.54C65.8543 16.54 66.001 16.54 66.0943 16.54C66.361 16.18 66.621 15.7667 66.8743 15.3C67.141 14.8333 67.401 14.32 67.6543 13.76C67.761 13.7467 67.941 13.6733 68.1943 13.54C68.461 13.3933 68.6676 13.2467 68.8143 13.1C68.881 13.0333 68.9343 13 68.9743 13C69.0543 13 69.0543 13.0533 68.9743 13.16C68.881 13.2667 68.721 13.4933 68.4943 13.84C68.2676 14.1733 68.0143 14.58 67.7343 15.06C67.4543 15.5267 67.1876 16.02 66.9343 16.54H68.5543C68.701 16.54 68.7743 16.56 68.7743 16.6C68.7743 16.6533 68.6743 16.7067 68.4743 16.76C68.2476 16.8267 68.0076 16.8667 67.7543 16.88C67.5143 16.8933 67.2876 16.92 67.0743 16.96C66.8743 17 66.7276 17.0867 66.6343 17.22C66.5543 17.3133 66.441 17.5133 66.2943 17.82C66.1476 18.1267 65.9876 18.48 65.8143 18.88C65.6543 19.2667 65.5143 19.66 65.3943 20.06C65.2743 20.4467 65.201 20.7733 65.1743 21.04V21.12C65.1743 21.2267 65.2076 21.3133 65.2743 21.38C65.341 21.4467 65.4076 21.48 65.4743 21.48C65.6476 21.48 65.8676 21.3733 66.1343 21.16C66.4143 20.9467 66.701 20.6933 66.9943 20.4C67.2876 20.0933 67.541 19.8133 67.7543 19.56C67.8476 19.4533 67.9276 19.3533 67.9943 19.26C68.0743 19.1667 68.121 19.1067 68.1343 19.08C68.161 19.1333 68.1743 19.1733 68.1743 19.2C68.1743 19.28 68.1476 19.3667 68.0943 19.46C68.0543 19.5533 68.0076 19.6333 67.9543 19.7C67.701 20.0333 67.3943 20.3867 67.0343 20.76C66.6743 21.12 66.2876 21.4267 65.8743 21.68C65.4743 21.9333 65.061 22.06 64.6343 22.06ZM72.238 22.5C71.8247 22.5 71.4847 22.38 71.218 22.14C70.9647 21.9 70.8647 21.54 70.918 21.06C70.9314 20.8867 70.9714 20.7067 71.038 20.52C71.118 20.32 71.2047 20.1267 71.298 19.94C71.378 19.7533 71.458 19.66 71.538 19.66C71.6047 19.66 71.6114 19.7133 71.558 19.82C71.3847 20.18 71.298 20.5 71.298 20.78C71.298 21.0733 71.398 21.2933 71.598 21.44C71.8114 21.5867 72.0847 21.66 72.418 21.66C73.0714 21.66 73.7914 21.4533 74.578 21.04C75.3647 20.6133 76.178 20.0733 77.018 19.42C77.858 18.7533 78.6647 18.06 79.438 17.34C78.918 17.3133 78.4314 17.2867 77.978 17.26C77.5247 17.2333 77.1247 17.22 76.778 17.22C76.4847 17.22 76.1314 17.2467 75.718 17.3C75.3047 17.3533 74.9847 17.4933 74.758 17.72C74.6647 17.8133 74.578 17.9533 74.498 18.14C74.4314 18.3133 74.398 18.4933 74.398 18.68C74.398 18.7333 74.398 18.7867 74.398 18.84C74.4114 18.88 74.4247 18.9267 74.438 18.98C74.3847 18.9533 74.2847 18.9333 74.138 18.92C74.0047 18.8933 73.918 18.8067 73.878 18.66C73.8647 18.62 73.858 18.5533 73.858 18.46C73.858 18.2467 73.938 18.0733 74.098 17.94C74.258 17.7933 74.4514 17.6667 74.678 17.56C74.9047 17.4533 75.1114 17.36 75.298 17.28C75.738 17.0933 76.1914 16.94 76.658 16.82C77.1247 16.7 77.598 16.64 78.078 16.64C78.6247 16.64 79.3047 16.66 80.118 16.7C80.7447 16.0867 81.3247 15.5067 81.858 14.96C82.3914 14.4133 82.8247 13.96 83.158 13.6C83.6247 13.1067 84.118 12.6867 84.638 12.34C85.1714 11.98 85.7114 11.7267 86.258 11.58H85.158C84.6914 11.58 84.1847 11.6 83.638 11.64C83.0914 11.68 82.578 11.7667 82.098 11.9C81.618 12.0333 81.218 12.2333 80.898 12.5C80.698 12.6733 80.5447 12.8733 80.438 13.1C80.3447 13.3133 80.298 13.5133 80.298 13.7C80.298 13.9533 80.3714 14.1267 80.518 14.22C80.5314 14.22 80.538 14.2267 80.538 14.24C80.538 14.28 80.4914 14.3267 80.398 14.38C80.3047 14.42 80.238 14.4267 80.198 14.4C80.0647 14.3067 79.9447 14.12 79.838 13.84C79.7447 13.5467 79.7114 13.3133 79.738 13.14C79.8047 12.7267 79.9847 12.3933 80.278 12.14C80.5847 11.8733 80.958 11.6667 81.398 11.52C81.8514 11.3733 82.3247 11.2733 82.818 11.22C83.3247 11.1667 83.8047 11.1333 84.258 11.12C84.7247 11.1067 85.118 11.1 85.438 11.1H87.618C87.6447 11.1 87.6514 11.1067 87.638 11.12C87.9714 10.9733 88.318 10.8267 88.678 10.68C89.0514 10.5333 89.3714 10.46 89.638 10.46C89.7047 10.46 89.7714 10.48 89.838 10.52C89.918 10.56 89.958 10.6 89.958 10.64C89.958 10.7067 89.8247 10.74 89.558 10.74C89.4247 10.74 89.2847 10.7667 89.138 10.82C89.0047 10.86 88.8247 11 88.598 11.24C88.4114 11.4267 88.178 11.7267 87.898 12.14C87.618 12.5533 87.3114 13.04 86.978 13.6C86.6447 14.1467 86.3114 14.7333 85.978 15.36C85.6447 15.9733 85.3247 16.58 85.018 17.18C84.7114 17.78 84.4447 18.3333 84.218 18.84C84.1914 18.92 84.118 19.1067 83.998 19.4C83.878 19.68 83.7647 19.9933 83.658 20.34C83.5514 20.6733 83.498 20.9733 83.498 21.24C83.498 21.6 83.6247 21.78 83.878 21.78C83.998 21.78 84.118 21.7533 84.238 21.7C84.4114 21.6333 84.5914 21.5333 84.778 21.4C84.9647 21.2667 85.1447 21.1133 85.318 20.94C85.6647 20.6067 85.958 20.2867 86.198 19.98C86.438 19.66 86.5847 19.4667 86.638 19.4C86.678 19.3333 86.7247 19.3 86.778 19.3C86.8314 19.3 86.858 19.3333 86.858 19.4C86.858 19.44 86.838 19.4933 86.798 19.56C86.7047 19.6933 86.5314 19.9267 86.278 20.26C86.0247 20.58 85.7247 20.9067 85.378 21.24C85.0447 21.5733 84.6847 21.8267 84.298 22C84.178 22.0533 84.0514 22.0933 83.918 22.12C83.7847 22.16 83.6514 22.18 83.518 22.18C83.2514 22.18 83.0047 22.0867 82.778 21.9C82.5647 21.7133 82.458 21.4067 82.458 20.98C82.458 20.5933 82.5314 20.18 82.678 19.74C82.838 19.2867 82.9847 18.92 83.118 18.64C83.3847 18.0667 83.698 17.4267 84.058 16.72C84.4314 16.0133 84.8114 15.3067 85.198 14.6C85.598 13.8933 85.9647 13.2533 86.298 12.68C86.6314 12.1067 86.9047 11.68 87.118 11.4C86.9047 11.4 86.618 11.4867 86.258 11.66C85.898 11.82 85.5114 12.04 85.098 12.32C84.698 12.5867 84.3247 12.9 83.978 13.26C83.5647 13.6867 83.0847 14.2067 82.538 14.82C82.0047 15.4333 81.4247 16.0733 80.798 16.74C81.1047 16.7533 81.4114 16.7667 81.718 16.78C82.0247 16.78 82.3314 16.78 82.638 16.78C82.8514 16.78 83.0847 16.76 83.338 16.72C83.6047 16.6667 83.8514 16.5867 84.078 16.48C84.078 16.48 84.038 16.5533 83.958 16.7C83.8914 16.8333 83.7714 16.9733 83.598 17.12C83.438 17.2533 83.218 17.3333 82.938 17.36C82.6847 17.3733 82.4314 17.3867 82.178 17.4C81.9247 17.4 81.6714 17.4 81.418 17.4C81.2047 17.4 80.9914 17.4 80.778 17.4C80.578 17.4 80.378 17.3933 80.178 17.38C79.5647 18.02 78.9247 18.6467 78.258 19.26C77.5914 19.86 76.918 20.4067 76.238 20.9C75.558 21.3933 74.878 21.78 74.198 22.06C73.5314 22.3533 72.878 22.5 72.238 22.5Z" fill="white"/>
</g>
<defs>
<clipPath id="clip0_68_5">
<rect width="120" height="35" rx="12" fill="white"/>
</clipPath>
</defs>
</svg>
