<svg width="107" height="30" viewBox="0 0 107 30" fill="none" xmlns="http://www.w3.org/2000/svg">
<circle cx="97" cy="15" r="10" fill="url(#paint0_linear_77_37)"/>
<circle cx="10" cy="15" r="10" fill="url(#paint1_linear_77_37)"/>
<rect width="86" height="30" transform="translate(10)" fill="url(#paint2_linear_77_37)"/>
<path d="M106 15C106 19.9706 101.523 24 96 24C90.4771 24 86 19.9706 86 15C86 10.0294 90.4771 6 96 6C101.523 6 106 10.0294 106 15Z" fill="black"/>
<rect width="84" height="28" transform="translate(11 1)" fill="black"/>
<path d="M21 15C21 19.9706 16.5228 24 11 24C5.47714 24 0.999992 19.9706 0.999992 15C0.999992 10.0294 5.47714 6 11 6C16.5228 6 21 10.0294 21 15Z" fill="black"/>
<ellipse cx="96" cy="15" rx="9" ry="8" fill="url(#paint3_linear_77_37)"/>
<ellipse cx="11" cy="15" rx="9" ry="8" fill="url(#paint4_linear_77_37)"/>
<rect width="82" height="26" transform="translate(12 2)" fill="url(#paint5_linear_77_37)"/>
<path d="M35.968 11.364V10.764C35.968 10.212 35.948 9.636 35.908 9.036L37.072 9.504C37.176 9.552 37.228 9.6 37.228 9.648C37.228 9.688 37.192 9.732 37.12 9.78L36.82 9.984V11.364H37.432L38.068 10.584L38.884 11.496C38.94 11.552 38.968 11.604 38.968 11.652C38.968 11.7 38.912 11.724 38.8 11.724H36.82V14.352H37.768L38.44 13.524L39.304 14.484C39.36 14.548 39.388 14.604 39.388 14.652C39.388 14.7 39.336 14.724 39.232 14.724H36.82V15.552C36.82 15.96 36.828 16.372 36.844 16.788L36.892 17.736C36.892 17.904 36.764 18.052 36.508 18.18C36.26 18.316 36.088 18.384 35.992 18.384C35.904 18.384 35.86 18.28 35.86 18.072L35.92 16.812C35.952 16.268 35.968 15.756 35.968 15.276V14.724H34.288C34.192 15.74 33.948 16.496 33.556 16.992C33.172 17.48 32.528 17.9 31.624 18.252L31.492 18.072C32.132 17.696 32.608 17.272 32.92 16.8C33.232 16.32 33.444 15.628 33.556 14.724H32.812C32.492 14.724 32.22 14.764 31.996 14.844L31.54 14.292C31.844 14.332 32.176 14.352 32.536 14.352H33.592C33.608 14.192 33.616 13.932 33.616 13.572C33.616 13.212 33.608 12.596 33.592 11.724H33.064C32.744 11.724 32.472 11.768 32.248 11.856L31.792 11.292C32.096 11.34 32.428 11.364 32.788 11.364H33.58L33.508 9.06L34.588 9.48C34.7 9.528 34.756 9.58 34.756 9.636C34.756 9.692 34.696 9.756 34.576 9.828C34.464 9.9 34.408 10.088 34.408 10.392V11.364H35.968ZM35.968 14.352V11.724H34.408C34.4 12.924 34.376 13.8 34.336 14.352H35.968ZM29.512 9.624C30.016 9.848 30.44 10.08 30.784 10.32C31.128 10.56 31.3 10.824 31.3 11.112C31.3 11.4 31.24 11.632 31.12 11.808C31 11.984 30.86 12.072 30.7 12.072C30.54 12.072 30.424 11.92 30.352 11.616C30.2 10.992 29.88 10.384 29.392 9.792L29.512 9.624ZM31.144 18.168C31.192 18.192 31.272 18.256 31.384 18.36C31.68 18.616 32 18.784 32.344 18.864C32.688 18.944 33.368 18.984 34.384 18.984C35.4 18.984 36.216 18.96 36.832 18.912C37.456 18.864 38.38 18.752 39.604 18.576L39.628 18.792C39.252 18.928 39 19.044 38.872 19.14C38.752 19.244 38.684 19.364 38.668 19.5C38.652 19.636 38.616 19.712 38.56 19.728C38.512 19.752 38.136 19.764 37.432 19.764L35.32 19.776C34.288 19.776 33.568 19.748 33.16 19.692C32.76 19.644 32.404 19.544 32.092 19.392C31.788 19.24 31.504 19.036 31.24 18.78C31.096 18.628 30.92 18.552 30.712 18.552C30.592 18.552 30.48 18.576 30.376 18.624C30.28 18.68 30.132 18.816 29.932 19.032C29.74 19.256 29.544 19.512 29.344 19.8C29.28 19.896 29.22 19.944 29.164 19.944C29.116 19.944 29.072 19.908 29.032 19.836L28.48 19.08C29.504 18.552 30.116 18.248 30.316 18.168V14.244H29.668C29.244 14.244 28.972 14.284 28.852 14.364L28.42 13.836C28.724 13.876 29.056 13.896 29.416 13.896H30.232L30.688 13.344L31.42 13.896C31.492 13.96 31.528 14.016 31.528 14.064C31.528 14.112 31.484 14.164 31.396 14.22L31.144 14.412V18.168ZM45.856 12.108C45.384 13.844 44.692 15.372 43.78 16.692C42.868 18.004 41.816 19.012 40.624 19.716L40.432 19.572C41.664 18.532 42.672 17.32 43.456 15.936C44.24 14.552 44.864 12.848 45.328 10.824C44.944 10.376 44.456 10.152 43.864 10.152C43.744 10.152 43.64 10.16 43.552 10.176C43.472 10.192 43.404 10.2 43.348 10.2C43.292 10.2 43.264 10.176 43.264 10.128C43.264 10.072 43.312 9.976 43.408 9.84C43.504 9.704 43.648 9.484 43.84 9.18C44.2 9.324 44.544 9.528 44.872 9.792C45.208 10.048 45.5 10.352 45.748 10.704C45.996 11.056 46.248 11.58 46.504 12.276C46.928 13.452 47.348 14.412 47.764 15.156C48.188 15.892 48.72 16.556 49.36 17.148C50.008 17.74 50.744 18.208 51.568 18.552L51.544 18.744C50.984 18.792 50.6 19.016 50.392 19.416C50.36 19.496 50.328 19.536 50.296 19.536C50.264 19.536 50.228 19.524 50.188 19.5C50.156 19.476 49.936 19.26 49.528 18.852C49.128 18.452 48.728 18 48.328 17.496C47.936 16.984 47.62 16.524 47.38 16.116C47.148 15.708 46.884 15.116 46.588 14.34C46.3 13.556 46.056 12.812 45.856 12.108ZM57.352 8.556C57.84 8.708 58.208 8.876 58.456 9.06C58.704 9.244 58.828 9.432 58.828 9.624C58.828 9.816 58.772 9.984 58.66 10.128C58.548 10.264 58.408 10.332 58.24 10.332C58.072 10.332 57.968 10.212 57.928 9.972C57.864 9.54 57.624 9.112 57.208 8.688L57.352 8.556ZM57.856 14.688H55.048C54.944 15.944 54.692 16.972 54.292 17.772C53.9 18.564 53.3 19.268 52.492 19.884L52.36 19.74C53.056 19.044 53.556 18.184 53.86 17.16C54.164 16.136 54.316 14.564 54.316 12.444V11.004C54.316 10.596 54.304 10.176 54.28 9.744L55.288 10.44H61.06L61.54 9.864L62.344 10.476C62.416 10.54 62.452 10.592 62.452 10.632C62.452 10.672 62.42 10.716 62.356 10.764L62.104 10.92V11.568C62.104 11.792 62.112 12 62.128 12.192L62.176 12.732C62.176 12.82 62.152 12.884 62.104 12.924C62.056 12.964 61.932 13.028 61.732 13.116C61.532 13.196 61.4 13.236 61.336 13.236C61.272 13.236 61.24 13.184 61.24 13.08V12.708H55.12C55.12 13.148 55.104 13.696 55.072 14.352H62.104L62.776 13.548L63.556 14.484C63.612 14.54 63.64 14.588 63.64 14.628C63.64 14.668 63.584 14.688 63.472 14.688H58.78C58.652 15.328 58.564 15.76 58.516 15.984H61L61.408 15.456L62.152 16.14C62.24 16.22 62.284 16.284 62.284 16.332C62.284 16.38 62.232 16.428 62.128 16.476L61.9 16.596C61.796 17.14 61.676 17.648 61.54 18.12C61.412 18.6 61.312 18.912 61.24 19.056C61.176 19.208 61.076 19.34 60.94 19.452C60.804 19.572 60.628 19.692 60.412 19.812C60.196 19.932 60.056 19.992 59.992 19.992C59.888 19.992 59.832 19.924 59.824 19.788C59.808 19.524 59.716 19.332 59.548 19.212C59.38 19.092 58.992 18.94 58.384 18.756L58.48 18.564C59.2 18.676 59.672 18.732 59.896 18.732C60.12 18.732 60.276 18.704 60.364 18.648C60.452 18.592 60.52 18.5 60.568 18.372C60.616 18.252 60.7 17.968 60.82 17.52C60.94 17.064 61.032 16.664 61.096 16.32H58.42C58.164 17.344 57.724 18.12 57.1 18.648C56.476 19.176 55.496 19.652 54.16 20.076L54.04 19.884C55.16 19.436 56.028 18.86 56.644 18.156C57.268 17.452 57.672 16.296 57.856 14.688ZM61.24 12.348V10.776H55.12V12.348H61.24ZM57.856 12.792C58.344 12.896 58.724 13.016 58.996 13.152C59.268 13.288 59.404 13.46 59.404 13.668C59.404 13.78 59.368 13.912 59.296 14.064C59.224 14.216 59.096 14.292 58.912 14.292C58.736 14.292 58.616 14.196 58.552 14.004C58.44 13.604 58.164 13.244 57.724 12.924L57.856 12.792ZM66.532 9.012C67.052 9.228 67.484 9.452 67.828 9.684C68.18 9.908 68.356 10.152 68.356 10.416C68.356 10.672 68.296 10.888 68.176 11.064C68.056 11.24 67.916 11.328 67.756 11.328C67.684 11.328 67.616 11.3 67.552 11.244C67.496 11.188 67.464 11.124 67.456 11.052C67.432 10.788 67.332 10.488 67.156 10.152C66.98 9.816 66.736 9.488 66.424 9.168L66.532 9.012ZM74.884 10.104C74.98 10.168 75.028 10.224 75.028 10.272C75.028 10.32 74.972 10.376 74.86 10.44L74.524 10.632V18.528C74.524 18.84 74.492 19.068 74.428 19.212C74.364 19.356 74.2 19.516 73.936 19.692C73.68 19.868 73.516 19.956 73.444 19.956C73.372 19.956 73.328 19.892 73.312 19.764C73.24 19.316 72.74 19.008 71.812 18.84L71.836 18.66C72.204 18.676 72.516 18.684 72.772 18.684C73.036 18.684 73.236 18.668 73.372 18.636C73.508 18.604 73.596 18.556 73.636 18.492C73.676 18.428 73.696 18.328 73.696 18.192V10.404H70.312C69.976 10.404 69.704 10.444 69.496 10.524L69.052 9.996C69.356 10.044 69.692 10.068 70.06 10.068H73.456L73.96 9.372L74.884 10.104ZM66.592 11.58L66.388 11.712V16.992C66.388 17.76 66.392 18.32 66.4 18.672C66.416 19.032 66.424 19.224 66.424 19.248C66.424 19.4 66.292 19.544 66.028 19.68C65.772 19.824 65.612 19.896 65.548 19.896C65.484 19.896 65.452 19.82 65.452 19.668L65.524 18.384C65.548 17.832 65.56 17.28 65.56 16.728V12.756C65.56 12.116 65.544 11.456 65.512 10.776L66.592 11.304C66.68 11.344 66.724 11.388 66.724 11.436C66.724 11.476 66.68 11.524 66.592 11.58ZM68.728 12.288H71.068L71.524 11.688L72.352 12.288C72.424 12.352 72.46 12.404 72.46 12.444C72.46 12.484 72.424 12.528 72.352 12.576L72.04 12.78V15.804C72.04 16.052 72.048 16.292 72.064 16.524L72.1 17.112C72.1 17.24 71.988 17.372 71.764 17.508C71.54 17.644 71.392 17.712 71.32 17.712C71.248 17.712 71.212 17.656 71.212 17.544V17.1H68.776V17.328C68.776 17.424 68.752 17.504 68.704 17.568C68.656 17.624 68.548 17.696 68.38 17.784C68.22 17.864 68.104 17.904 68.032 17.904C67.96 17.904 67.924 17.852 67.924 17.748C67.924 17.644 67.932 17.456 67.948 17.184C67.964 16.912 67.972 16.484 67.972 15.9V12.96C67.972 12.632 67.956 12.264 67.924 11.856L68.728 12.288ZM71.212 14.484V12.624H68.776V14.484H71.212ZM71.212 16.764V14.82H68.776V16.764H71.212Z" fill="black"/>
<defs>
<linearGradient id="paint0_linear_77_37" x1="97" y1="5" x2="97" y2="25" gradientUnits="userSpaceOnUse">
<stop offset="0.163462" stop-color="#CAA67B"/>
<stop offset="0.735577" stop-color="#B48A64"/>
</linearGradient>
<linearGradient id="paint1_linear_77_37" x1="10" y1="5" x2="10" y2="25" gradientUnits="userSpaceOnUse">
<stop offset="0.163462" stop-color="#CAA67B"/>
<stop offset="0.735577" stop-color="#B48A64"/>
</linearGradient>
<linearGradient id="paint2_linear_77_37" x1="43" y1="0" x2="43" y2="30" gradientUnits="userSpaceOnUse">
<stop offset="0.163462" stop-color="#CAA67B"/>
<stop offset="0.735577" stop-color="#B48A64"/>
</linearGradient>
<linearGradient id="paint3_linear_77_37" x1="96" y1="7" x2="96" y2="23" gradientUnits="userSpaceOnUse">
<stop offset="0.163462" stop-color="#CAA67B"/>
<stop offset="0.735577" stop-color="#B48A64"/>
</linearGradient>
<linearGradient id="paint4_linear_77_37" x1="11" y1="7" x2="11" y2="23" gradientUnits="userSpaceOnUse">
<stop offset="0.163462" stop-color="#CAA67B"/>
<stop offset="0.735577" stop-color="#B48A64"/>
</linearGradient>
<linearGradient id="paint5_linear_77_37" x1="41" y1="0" x2="41" y2="26" gradientUnits="userSpaceOnUse">
<stop offset="0.163462" stop-color="#CAA67B"/>
<stop offset="0.735577" stop-color="#B48A64"/>
</linearGradient>
</defs>
</svg>
